<svg width="317" height="138" viewBox="0 0 317 138" fill="none" xmlns="http://www.w3.org/2000/svg">
<g filter="url(#filter0_d_13_40)">
<path d="M287.065 98H49.9352C44.4555 98 40 93.5701 40 88.0839V29.9161C40 24.4469 44.4555 20 49.9352 20H287.065C292.545 20 297 24.4469 297 29.9161V88.1009C297 93.5701 292.562 98 287.065 98Z" fill="black"/>
<path d="M63.3527 51.8781C59.1875 59.1022 61.8334 70.0576 66.4425 76.7025C68.7471 80.0249 71.0687 83.0065 74.2609 83.0065C74.3292 83.0065 74.3804 83.0065 74.4487 83.0065C75.951 82.9554 77.0264 82.4784 78.0848 82.0354C79.2627 81.5413 80.4747 81.0131 82.3866 81.0131C84.1961 81.0131 85.3569 81.5072 86.4836 82.0013C87.5932 82.4784 88.7199 82.9725 90.4099 82.9384C94.0118 82.8702 96.2139 79.65 98.16 76.8217C100.191 73.8571 101.216 70.9777 101.557 69.8873L101.574 69.8362C101.642 69.6487 101.54 69.4272 101.352 69.3421C101.352 69.3421 101.335 69.325 101.318 69.325C100.686 69.0694 95.1385 66.616 95.0702 59.903C95.019 54.4508 99.2354 51.5714 100.089 51.0603L100.123 51.0432C100.208 50.9921 100.277 50.8899 100.294 50.7877C100.311 50.6854 100.294 50.5662 100.226 50.481C97.3064 46.2215 92.851 45.5911 91.0586 45.5059C90.8025 45.4718 90.5294 45.4718 90.2562 45.4718C88.1395 45.4718 86.1251 46.2726 84.5034 46.903C83.3767 47.346 82.4208 47.7208 81.7379 47.7208C80.9868 47.7208 80.0138 47.3289 78.8871 46.886C77.3849 46.2896 75.6608 45.6081 73.8513 45.6081C73.8 45.6081 73.7659 45.6081 73.7318 45.6081C69.5324 45.6592 65.5549 48.0616 63.3527 51.8781Z" fill="white"/>
<path d="M91.0586 33.7838C88.515 33.886 85.4594 35.4535 83.6328 37.5832C82.0794 39.3722 80.5601 42.3709 80.9698 45.3866C80.9868 45.5741 81.1575 45.7274 81.3453 45.7444C81.516 45.7615 81.6867 45.7615 81.8745 45.7615C84.3668 45.7615 87.047 44.3814 88.8906 42.1665C90.8196 39.8323 91.7926 36.8165 91.5024 34.1416C91.4683 33.9201 91.2805 33.7667 91.0586 33.7838Z" fill="white"/>
<path d="M120.386 37.7877H125.217C126.48 37.7877 127.607 38.0433 128.597 38.5715C129.587 39.0996 130.338 39.8152 130.885 40.7353C131.431 41.6553 131.704 42.7117 131.704 43.8703C131.704 45.0459 131.431 46.0852 130.885 47.0053C130.338 47.9253 129.57 48.658 128.597 49.1691C127.607 49.6973 126.48 49.9529 125.217 49.9529H120.386V37.7877ZM125.149 49.1861C126.276 49.1861 127.266 48.9647 128.136 48.5217C128.99 48.0787 129.656 47.4483 130.134 46.6475C130.594 45.8467 130.833 44.9266 130.833 43.9044C130.833 42.865 130.594 41.962 130.134 41.1612C129.673 40.3605 129.007 39.7301 128.136 39.2871C127.283 38.8441 126.276 38.6226 125.149 38.6226H121.274V49.2032H125.149V49.1861Z" fill="white"/>
<path d="M135.75 49.4587C135.05 49.0668 134.521 48.5216 134.111 47.806C133.718 47.1075 133.514 46.3067 133.514 45.4207C133.514 44.5347 133.718 43.751 134.111 43.0354C134.504 42.3368 135.05 41.7916 135.75 41.3827C136.45 40.9908 137.218 40.7864 138.071 40.7864C138.925 40.7864 139.71 40.9908 140.393 41.3827C141.093 41.7746 141.622 42.3198 142.032 43.0354C142.424 43.734 142.629 44.5347 142.629 45.4207C142.629 46.3067 142.424 47.0904 142.032 47.806C141.639 48.5046 141.093 49.0498 140.393 49.4587C139.693 49.8506 138.925 50.0551 138.071 50.0551C137.218 50.0551 136.45 49.8506 135.75 49.4587ZM139.966 48.7772C140.513 48.4535 140.956 47.9935 141.281 47.4142C141.605 46.8349 141.759 46.1704 141.759 45.4207C141.759 44.671 141.605 44.0236 141.281 43.4273C140.956 42.848 140.53 42.3879 139.966 42.0642C139.42 41.7405 138.788 41.5701 138.089 41.5701C137.389 41.5701 136.757 41.7405 136.211 42.0642C135.664 42.3879 135.221 42.848 134.896 43.4273C134.572 44.0066 134.418 44.671 134.418 45.4207C134.418 46.1704 134.572 46.8178 134.896 47.4142C135.221 47.9935 135.647 48.4535 136.211 48.7772C136.757 49.1009 137.389 49.2713 138.089 49.2713C138.788 49.2713 139.403 49.1009 139.966 48.7772Z" fill="white"/>
<path d="M158.095 40.8885L154.647 49.9868H153.828L150.755 42.0982L147.665 49.9868H146.863L143.415 40.8885H144.251L147.29 48.9986L150.397 40.8885H151.148L154.237 48.9816L157.31 40.8885H158.095Z" fill="white"/>
<path d="M167.279 41.8257C167.945 42.4902 168.27 43.4444 168.27 44.6881V49.987H167.399V44.7392C167.399 43.717 167.143 42.9332 166.631 42.405C166.119 41.8769 165.385 41.6043 164.463 41.6043C163.387 41.6043 162.551 41.928 161.936 42.5584C161.322 43.1888 161.015 44.0577 161.015 45.1311V49.987H160.144V40.8887H160.98V42.848C161.288 42.2176 161.766 41.7065 162.38 41.3487C162.995 40.9909 163.746 40.8035 164.582 40.8035C165.709 40.8205 166.614 41.1613 167.279 41.8257Z" fill="white"/>
<path d="M171.854 37.0721H172.725V49.987H171.854V37.0721Z" fill="white"/>
<path d="M177.641 49.4587C176.942 49.0668 176.412 48.5216 176.003 47.806C175.61 47.1075 175.405 46.3067 175.405 45.4207C175.405 44.5347 175.61 43.751 176.003 43.0354C176.395 42.3368 176.942 41.7916 177.641 41.3827C178.341 40.9908 179.11 40.7864 179.963 40.7864C180.817 40.7864 181.602 40.9908 182.285 41.3827C182.985 41.7746 183.514 42.3198 183.923 43.0354C184.316 43.734 184.521 44.5347 184.521 45.4207C184.521 46.3067 184.316 47.0904 183.923 47.806C183.531 48.5046 182.985 49.0498 182.285 49.4587C181.585 49.8506 180.817 50.0551 179.963 50.0551C179.11 50.0551 178.341 49.8506 177.641 49.4587ZM181.858 48.7772C182.404 48.4535 182.848 47.9935 183.172 47.4142C183.497 46.8349 183.65 46.1704 183.65 45.4207C183.65 44.671 183.497 44.0236 183.172 43.4273C182.848 42.848 182.421 42.3879 181.858 42.0642C181.312 41.7405 180.68 41.5701 179.98 41.5701C179.28 41.5701 178.649 41.7405 178.102 42.0642C177.556 42.3879 177.112 42.848 176.788 43.4273C176.464 44.0066 176.31 44.671 176.31 45.4207C176.31 46.1704 176.464 46.8178 176.788 47.4142C177.112 47.9935 177.539 48.4535 178.102 48.7772C178.649 49.1009 179.28 49.2713 179.98 49.2713C180.68 49.2713 181.295 49.1009 181.858 48.7772Z" fill="white"/>
<path d="M192.869 41.6894C193.466 42.2687 193.773 43.1035 193.773 44.228V49.9869H192.937V48.3683C192.647 48.8965 192.22 49.3224 191.657 49.612C191.093 49.9017 190.427 50.055 189.642 50.055C188.635 50.055 187.833 49.8165 187.235 49.3394C186.655 48.8624 186.348 48.232 186.348 47.4653C186.348 46.7156 186.621 46.1022 187.167 45.6252C187.713 45.1481 188.567 44.9266 189.762 44.9266H192.886V44.194C192.886 43.3421 192.664 42.6946 192.203 42.2687C191.742 41.8257 191.076 41.6042 190.188 41.6042C189.591 41.6042 189.011 41.7064 188.447 41.9109C187.901 42.1153 187.423 42.405 187.047 42.7457L186.604 42.1153C187.065 41.7064 187.611 41.3997 188.242 41.1612C188.874 40.9397 189.557 40.8204 190.257 40.8204C191.4 40.8204 192.271 41.1101 192.869 41.6894ZM191.708 48.8113C192.237 48.4705 192.63 47.9594 192.903 47.2949V45.5911H189.796C188.908 45.5911 188.259 45.7615 187.85 46.0852C187.44 46.4089 187.252 46.8519 187.252 47.4312C187.252 48.0275 187.474 48.4875 187.918 48.8283C188.362 49.1691 188.976 49.3394 189.779 49.3394C190.53 49.3394 191.179 49.1691 191.708 48.8113Z" fill="white"/>
<path d="M205.484 37.0721V49.9869H204.63V47.8401C204.272 48.5557 203.76 49.1009 203.111 49.4758C202.462 49.8506 201.728 50.0551 200.892 50.0551C200.038 50.0551 199.27 49.8506 198.587 49.4587C197.904 49.0668 197.358 48.5216 196.966 47.8231C196.573 47.1245 196.385 46.3237 196.385 45.4378C196.385 44.5518 196.573 43.751 196.966 43.0354C197.358 42.3368 197.887 41.7916 198.587 41.3997C199.27 41.0079 200.038 40.8205 200.892 40.8205C201.711 40.8205 202.428 41.0079 203.077 41.3997C203.726 41.7746 204.238 42.3198 204.596 43.0013V37.0551H205.484V37.0721ZM202.821 48.7772C203.367 48.4535 203.811 47.9935 204.135 47.4142C204.46 46.8349 204.613 46.1704 204.613 45.4207C204.613 44.671 204.46 44.0236 204.135 43.4273C203.811 42.848 203.384 42.388 202.821 42.0642C202.275 41.7405 201.643 41.5701 200.943 41.5701C200.243 41.5701 199.612 41.7405 199.065 42.0642C198.519 42.388 198.075 42.848 197.751 43.4273C197.426 44.0066 197.273 44.671 197.273 45.4207C197.273 46.1704 197.426 46.8178 197.751 47.4142C198.075 47.9935 198.502 48.4535 199.065 48.7772C199.612 49.1009 200.243 49.2713 200.943 49.2713C201.643 49.2713 202.275 49.1009 202.821 48.7772Z" fill="white"/>
<path d="M214.873 49.4587C214.173 49.0668 213.644 48.5216 213.234 47.806C212.841 47.1075 212.636 46.3067 212.636 45.4207C212.636 44.5347 212.841 43.751 213.234 43.0354C213.627 42.3368 214.173 41.7916 214.873 41.3827C215.573 40.9908 216.341 40.7864 217.194 40.7864C218.048 40.7864 218.833 40.9908 219.516 41.3827C220.216 41.7746 220.745 42.3198 221.155 43.0354C221.547 43.734 221.752 44.5347 221.752 45.4207C221.752 46.3067 221.547 47.0904 221.155 47.806C220.762 48.5046 220.216 49.0498 219.516 49.4587C218.816 49.8506 218.048 50.0551 217.194 50.0551C216.341 50.0551 215.573 49.8506 214.873 49.4587ZM219.089 48.7772C219.635 48.4535 220.079 47.9935 220.404 47.4142C220.728 46.8349 220.882 46.1704 220.882 45.4207C220.882 44.671 220.728 44.0236 220.404 43.4273C220.079 42.848 219.653 42.3879 219.089 42.0642C218.543 41.7405 217.911 41.5701 217.211 41.5701C216.512 41.5701 215.88 41.7405 215.334 42.0642C214.787 42.3879 214.344 42.848 214.019 43.4273C213.695 44.0066 213.541 44.671 213.541 45.4207C213.541 46.1704 213.695 46.8178 214.019 47.4142C214.344 47.9935 214.77 48.4535 215.334 48.7772C215.88 49.1009 216.512 49.2713 217.211 49.2713C217.911 49.2713 218.526 49.1009 219.089 48.7772Z" fill="white"/>
<path d="M231.619 41.8257C232.285 42.4902 232.609 43.4444 232.609 44.6881V49.987H231.739V44.7392C231.739 43.717 231.483 42.9332 230.97 42.405C230.458 41.8769 229.724 41.6043 228.802 41.6043C227.727 41.6043 226.89 41.928 226.276 42.5584C225.661 43.1888 225.354 44.0577 225.354 45.1311V49.987H224.484V40.8887H225.32V42.848C225.627 42.2176 226.105 41.7065 226.72 41.3487C227.334 40.9909 228.085 40.8035 228.922 40.8035C230.049 40.8205 230.953 41.1613 231.619 41.8257Z" fill="white"/>
<path d="M245.207 49.4076C244.985 49.6121 244.712 49.7825 244.371 49.8847C244.047 49.9869 243.688 50.0551 243.33 50.0551C242.544 50.0551 241.93 49.8336 241.503 49.4076C241.076 48.9647 240.854 48.3683 240.854 47.5846V41.6383H239.181V40.8886H240.854V38.9122H241.725V40.9057H244.627V41.6554H241.725V47.4994C241.725 48.0957 241.862 48.5387 242.152 48.8454C242.442 49.1521 242.852 49.3054 243.415 49.3054C243.978 49.3054 244.456 49.135 244.832 48.7943L245.207 49.4076Z" fill="white"/>
<path d="M254.784 41.8257C255.45 42.4902 255.774 43.4444 255.774 44.6881V49.987H254.904V44.7392C254.904 43.717 254.648 42.9332 254.135 42.405C253.623 41.8769 252.889 41.6043 251.967 41.6043C250.892 41.6043 250.056 41.928 249.441 42.5584C248.826 43.1888 248.519 44.0577 248.519 45.1311V49.987H247.649V37.0721H248.519V42.7969C248.826 42.1665 249.304 41.6894 249.919 41.3487C250.534 41.0079 251.268 40.8375 252.104 40.8375C253.231 40.8205 254.135 41.1613 254.784 41.8257Z" fill="white"/>
<path d="M267.092 45.6422H259.257C259.274 46.3578 259.461 46.9882 259.803 47.5334C260.144 48.0786 260.605 48.5046 261.169 48.8113C261.749 49.118 262.398 49.2713 263.115 49.2713C263.712 49.2713 264.258 49.1691 264.77 48.9476C265.283 48.7261 265.692 48.4194 266.034 47.9935L266.546 48.5727C266.153 49.0498 265.658 49.4076 265.061 49.6632C264.463 49.9188 263.815 50.038 263.115 50.038C262.21 50.038 261.39 49.8336 260.691 49.4417C259.974 49.0498 259.427 48.5046 259.018 47.806C258.608 47.1075 258.42 46.3067 258.42 45.4207C258.42 44.5347 258.608 43.751 258.984 43.0354C259.359 42.3368 259.888 41.7916 260.537 41.3827C261.203 40.9908 261.937 40.7864 262.773 40.7864C263.593 40.7864 264.344 40.9738 264.992 41.3657C265.641 41.7575 266.17 42.3028 266.546 43.0013C266.921 43.6999 267.109 44.4836 267.109 45.3696L267.092 45.6422ZM261.032 42.0131C260.52 42.3028 260.11 42.6946 259.803 43.2228C259.496 43.734 259.325 44.3303 259.274 44.9777H266.256C266.221 44.3303 266.051 43.751 265.726 43.2398C265.419 42.7287 264.992 42.3368 264.48 42.0302C263.968 41.7405 263.388 41.5872 262.756 41.5872C262.125 41.5872 261.544 41.7405 261.032 42.0131Z" fill="white"/>
<path d="M133.309 76.941H122.878L120.813 81.7628H116.818L126.207 60.9253H130.031L139.454 81.7628H135.391L133.309 76.941ZM132.028 73.8912L128.085 64.7929L124.176 73.8912H132.028Z" fill="white"/>
<path d="M154.732 66.7012C155.962 67.3828 156.918 68.3198 157.617 69.5636C158.317 70.7904 158.659 72.2045 158.659 73.8231C158.659 75.4247 158.317 76.8559 157.617 78.0997C156.918 79.3434 155.962 80.2976 154.732 80.9791C153.503 81.6606 152.121 81.9843 150.567 81.9843C148.416 81.9843 146.726 81.2687 145.463 79.8375V87.5387H141.742V65.8664H145.292V67.945C145.907 67.1953 146.675 66.6331 147.58 66.2412C148.485 65.8664 149.475 65.679 150.584 65.679C152.121 65.679 153.503 66.0197 154.732 66.7012ZM153.538 77.4181C154.425 76.4981 154.869 75.3054 154.869 73.8231C154.869 72.3408 154.425 71.1311 153.538 70.2281C152.65 69.308 151.523 68.8651 150.158 68.8651C149.27 68.8651 148.45 69.0695 147.751 69.4784C147.034 69.8873 146.47 70.4666 146.043 71.2163C145.634 71.966 145.412 72.8349 145.412 73.8402C145.412 74.8284 145.617 75.6973 146.043 76.464C146.453 77.2137 147.034 77.793 147.751 78.2019C148.468 78.6108 149.27 78.8153 150.158 78.8153C151.523 78.7812 152.65 78.3212 153.538 77.4181Z" fill="white"/>
<path d="M175.183 66.7012C176.412 67.3828 177.368 68.3198 178.068 69.5636C178.768 70.7904 179.109 72.2045 179.109 73.8231C179.109 75.4247 178.768 76.8559 178.068 78.0997C177.368 79.3434 176.412 80.2976 175.183 80.9791C173.954 81.6606 172.571 81.9843 171.018 81.9843C168.867 81.9843 167.177 81.2687 165.914 79.8375V87.5387H162.192V65.8664H165.743V67.945C166.358 67.1953 167.126 66.6331 168.031 66.2412C168.935 65.8664 169.925 65.679 171.035 65.679C172.571 65.679 173.971 66.0197 175.183 66.7012ZM173.988 77.4181C174.876 76.4981 175.32 75.3054 175.32 73.8231C175.32 72.3408 174.876 71.1311 173.988 70.2281C173.101 69.308 171.974 68.8651 170.608 68.8651C169.721 68.8651 168.901 69.0695 168.201 69.4784C167.484 69.8873 166.921 70.4666 166.494 71.2163C166.085 71.966 165.863 72.8349 165.863 73.8402C165.863 74.8284 166.067 75.6973 166.494 76.464C166.904 77.2137 167.484 77.793 168.201 78.2019C168.918 78.6108 169.721 78.8153 170.608 78.8153C171.974 78.7812 173.101 78.3212 173.988 77.4181Z" fill="white"/>
<path d="M193.039 81.3709C191.537 80.9109 190.359 80.3146 189.471 79.5479L190.82 76.5492C191.674 77.2307 192.715 77.7759 193.961 78.2019C195.207 78.6278 196.453 78.8493 197.7 78.8493C199.253 78.8493 200.414 78.5937 201.165 78.0996C201.933 77.6055 202.309 76.941 202.309 76.1403C202.309 75.5439 202.087 75.0498 201.66 74.675C201.233 74.2831 200.687 73.9935 200.038 73.772C199.39 73.5505 198.485 73.312 197.358 73.0223C195.771 72.6475 194.473 72.2726 193.5 71.8978C192.51 71.523 191.674 70.9266 190.974 70.1258C190.274 69.3251 189.915 68.2346 189.915 66.8716C189.915 65.713 190.223 64.6737 190.854 63.7366C191.486 62.7995 192.425 62.0498 193.688 61.4876C194.951 60.9253 196.488 60.6527 198.331 60.6527C199.611 60.6527 200.858 60.806 202.087 61.1298C203.316 61.4535 204.374 61.8965 205.279 62.4928L204.05 65.4915C203.128 64.9633 202.189 64.5544 201.182 64.2648C200.192 63.9922 199.219 63.8559 198.297 63.8559C196.761 63.8559 195.634 64.1114 194.883 64.6226C194.132 65.1337 193.773 65.8152 193.773 66.6842C193.773 67.2805 193.978 67.7576 194.422 68.1494C194.849 68.5243 195.395 68.831 196.044 69.0354C196.692 69.2569 197.597 69.4954 198.724 69.7851C200.277 70.1429 201.54 70.5177 202.548 70.8926C203.538 71.2844 204.391 71.8637 205.091 72.6645C205.791 73.4653 206.15 74.5216 206.15 75.8847C206.15 77.0433 205.842 78.0826 205.211 79.0026C204.579 79.9397 203.64 80.6724 202.36 81.2346C201.08 81.7969 199.543 82.0695 197.717 82.0695C196.095 82.0524 194.541 81.831 193.039 81.3709Z" fill="white"/>
<path d="M219.209 80.8939C218.765 81.2517 218.236 81.5243 217.621 81.6947C216.989 81.8651 216.341 81.9673 215.641 81.9673C213.9 81.9673 212.534 81.5073 211.578 80.6043C210.622 79.6842 210.144 78.3553 210.144 76.6174V68.9673H207.515V65.9857H210.144V62.3566H213.866V65.9857H218.133V68.9673H213.866V76.5322C213.866 77.2989 214.053 77.8952 214.429 78.3041C214.804 78.7131 215.351 78.9175 216.068 78.9175C216.904 78.9175 217.604 78.696 218.15 78.2701L219.209 80.8939Z" fill="white"/>
<path d="M224.552 80.928C223.254 80.2294 222.247 79.2582 221.53 78.0315C220.796 76.7877 220.438 75.3906 220.438 73.8231C220.438 72.2556 220.796 70.8585 221.53 69.6318C222.247 68.405 223.271 67.4339 224.552 66.7523C225.849 66.0538 227.3 65.713 228.905 65.713C230.527 65.713 231.995 66.0538 233.292 66.7523C234.589 67.4509 235.597 68.405 236.314 69.6318C237.031 70.8585 237.406 72.2556 237.406 73.8231C237.406 75.3906 237.048 76.7877 236.314 78.0315C235.579 79.2753 234.572 80.2464 233.292 80.928C231.995 81.6265 230.544 81.9673 228.905 81.9673C227.283 81.9673 225.832 81.6095 224.552 80.928ZM232.302 77.4181C233.19 76.4981 233.651 75.3054 233.651 73.8231C233.651 72.3408 233.207 71.1311 232.302 70.2281C231.414 69.308 230.27 68.865 228.905 68.865C227.539 68.865 226.413 69.3251 225.525 70.2281C224.637 71.1481 224.193 72.3408 224.193 73.8231C224.193 75.3054 224.637 76.5151 225.525 77.4181C226.413 78.3382 227.539 78.7812 228.905 78.7812C230.27 78.7812 231.397 78.3211 232.302 77.4181Z" fill="white"/>
<path d="M250.192 65.679V69.2229C249.868 69.1717 249.578 69.1377 249.321 69.1377C247.87 69.1377 246.744 69.5636 245.924 70.3985C245.105 71.2504 244.695 72.4601 244.695 74.0446V81.7458H240.974V65.8493H244.525V68.1665C245.6 66.5138 247.495 65.679 250.192 65.679Z" fill="white"/>
<path d="M268.116 74.9987H255.621C255.842 76.1743 256.406 77.0943 257.328 77.7759C258.249 78.4574 259.393 78.7982 260.776 78.7982C262.517 78.7982 263.968 78.2189 265.095 77.0773L267.092 79.3604C266.375 80.2123 265.47 80.8597 264.378 81.3027C263.285 81.7457 262.056 81.9502 260.673 81.9502C258.932 81.9502 257.379 81.6094 256.047 80.9109C254.716 80.2123 253.692 79.2411 252.958 78.0144C252.223 76.7706 251.865 75.3735 251.865 73.806C251.865 72.2556 252.223 70.8584 252.923 69.6317C253.623 68.3879 254.613 67.4168 255.86 66.7352C257.106 66.0367 258.523 65.6959 260.093 65.6959C261.647 65.6959 263.029 66.0367 264.258 66.7182C265.487 67.3997 266.443 68.3709 267.126 69.5976C267.809 70.8414 268.15 72.2726 268.15 73.8912C268.168 74.1638 268.15 74.5216 268.116 74.9987ZM257.089 69.7169C256.269 70.4154 255.757 71.3525 255.586 72.5282H264.617C264.463 71.3696 263.968 70.4495 263.149 69.7339C262.329 69.0183 261.322 68.6605 260.11 68.6605C258.932 68.6605 257.925 69.0183 257.089 69.7169Z" fill="white"/>
</g>
<defs>
<filter id="filter0_d_13_40" x="0" y="0" width="317" height="138" filterUnits="userSpaceOnUse" color-interpolation-filters="sRGB">
<feFlood flood-opacity="0" result="BackgroundImageFix"/>
<feColorMatrix in="SourceAlpha" type="matrix" values="0 0 0 0 0 0 0 0 0 0 0 0 0 0 0 0 0 0 127 0" result="hardAlpha"/>
<feOffset dx="-10" dy="10"/>
<feGaussianBlur stdDeviation="15"/>
<feComposite in2="hardAlpha" operator="out"/>
<feColorMatrix type="matrix" values="0 0 0 0 0 0 0 0 0 0 0 0 0 0 0 0 0 0 0.25 0"/>
<feBlend mode="normal" in2="BackgroundImageFix" result="effect1_dropShadow_13_40"/>
<feBlend mode="normal" in="SourceGraphic" in2="effect1_dropShadow_13_40" result="shape"/>
</filter>
</defs>
</svg>
