<svg width="317" height="139" viewBox="0 0 317 139" fill="none" xmlns="http://www.w3.org/2000/svg">
<g filter="url(#filter0_d_13_73)">
<path d="M287.065 98.0989H49.9352C44.4555 98.0989 40 93.6634 40 88.1702V29.9287C40 24.4526 44.4555 20 49.9352 20H287.065C292.545 20 297 24.4526 297 29.9287V88.1873C297 93.6634 292.562 98.0989 287.065 98.0989Z" fill="black"/>
<path d="M124.227 67.1869H127.812V75.3073C126.771 76.1432 125.542 76.7744 124.142 77.2351C122.742 77.6786 121.308 77.9004 119.823 77.9004C117.74 77.9004 115.863 77.4568 114.207 76.5527C112.534 75.6485 111.219 74.4032 110.28 72.8166C109.324 71.2301 108.846 69.4218 108.846 67.4258C108.846 65.4298 109.324 63.6385 110.28 62.0349C111.236 60.4484 112.551 59.203 114.224 58.2989C115.897 57.3947 117.792 56.9512 119.891 56.9512C121.598 56.9512 123.152 57.2412 124.552 57.8042C125.951 58.3671 127.129 59.186 128.085 60.2778L125.695 62.615C124.142 61.0625 122.264 60.2778 120.079 60.2778C118.645 60.2778 117.365 60.5849 116.255 61.182C115.146 61.779 114.258 62.632 113.626 63.7238C112.995 64.8157 112.687 66.061 112.687 67.4428C112.687 68.8076 112.995 70.0188 113.626 71.1107C114.258 72.2025 115.128 73.0555 116.255 73.6696C117.365 74.2837 118.645 74.6079 120.062 74.6079C121.649 74.6079 123.049 74.2667 124.261 73.5672V67.1869H124.227Z" fill="white"/>
<path d="M135.187 76.7915C133.923 76.1092 132.933 75.1709 132.233 73.9597C131.516 72.7484 131.175 71.3666 131.175 69.8312C131.175 68.2959 131.533 66.9311 132.233 65.7199C132.95 64.5086 133.923 63.5703 135.187 62.888C136.45 62.2056 137.867 61.8644 139.437 61.8644C141.025 61.8644 142.459 62.2056 143.722 62.888C144.985 63.5703 145.975 64.5086 146.675 65.7199C147.392 66.9311 147.734 68.2959 147.734 69.8312C147.734 71.3666 147.375 72.7314 146.675 73.9597C145.958 75.1709 144.985 76.1262 143.722 76.7915C142.459 77.4739 141.025 77.8151 139.437 77.8151C137.867 77.8151 136.45 77.4739 135.187 76.7915ZM142.766 73.3626C143.637 72.4755 144.08 71.2984 144.08 69.8312C144.08 68.3812 143.637 67.204 142.766 66.2999C141.895 65.4128 140.786 64.9522 139.437 64.9522C138.089 64.9522 136.996 65.3957 136.125 66.2999C135.255 67.187 134.828 68.3641 134.828 69.8312C134.828 71.2813 135.255 72.4584 136.125 73.3626C136.996 74.2497 138.089 74.7103 139.437 74.7103C140.786 74.6932 141.878 74.2497 142.766 73.3626Z" fill="white"/>
<path d="M153.981 76.7915C152.718 76.1092 151.728 75.1709 151.028 73.9597C150.311 72.7484 149.97 71.3666 149.97 69.8312C149.97 68.2959 150.328 66.9311 151.028 65.7199C151.745 64.5086 152.718 63.5703 153.981 62.888C155.245 62.2056 156.661 61.8644 158.232 61.8644C159.82 61.8644 161.253 62.2056 162.517 62.888C163.78 63.5703 164.77 64.5086 165.47 65.7199C166.187 66.9311 166.528 68.2959 166.528 69.8312C166.528 71.3666 166.17 72.7314 165.47 73.9597C164.753 75.1709 163.78 76.1262 162.517 76.7915C161.253 77.4739 159.82 77.8151 158.232 77.8151C156.661 77.8151 155.245 77.4739 153.981 76.7915ZM161.561 73.3626C162.431 72.4755 162.875 71.2984 162.875 69.8312C162.875 68.3812 162.431 67.204 161.561 66.2999C160.69 65.4128 159.581 64.9522 158.232 64.9522C156.883 64.9522 155.791 65.3957 154.92 66.2999C154.05 67.187 153.623 68.3641 153.623 69.8312C153.623 71.2813 154.05 72.4584 154.92 73.3626C155.791 74.2497 156.883 74.7103 158.232 74.7103C159.581 74.6932 160.673 74.2497 161.561 73.3626Z" fill="white"/>
<path d="M185.477 62.052V75.2391C185.477 80.7152 182.677 83.4447 177.078 83.4447C175.576 83.4447 174.159 83.2571 172.827 82.8818C171.479 82.5065 170.386 81.9606 169.499 81.244L171.137 78.5145C171.82 79.0775 172.674 79.521 173.715 79.8622C174.756 80.2034 175.815 80.374 176.873 80.374C178.58 80.374 179.844 79.9816 180.629 79.214C181.431 78.4292 181.824 77.2521 181.824 75.6655V74.8467C181.209 75.5291 180.441 76.0409 179.553 76.3821C178.666 76.7232 177.676 76.9109 176.617 76.9109C175.149 76.9109 173.8 76.6038 172.606 75.9726C171.411 75.3414 170.472 74.4543 169.772 73.3113C169.089 72.1683 168.73 70.8547 168.73 69.3876C168.73 67.9205 169.072 66.6069 169.772 65.4639C170.455 64.3209 171.411 63.4509 172.606 62.8367C173.8 62.2226 175.132 61.8984 176.617 61.8984C177.744 61.8984 178.768 62.0861 179.69 62.4443C180.612 62.8197 181.38 63.3826 182.012 64.1332V62.069H185.477V62.052ZM180.561 72.5778C181.448 71.7589 181.892 70.6841 181.892 69.3535C181.892 68.057 181.448 66.9993 180.561 66.1804C179.673 65.3615 178.546 64.9521 177.163 64.9521C175.764 64.9521 174.62 65.3615 173.732 66.1804C172.845 66.9993 172.401 68.057 172.401 69.3535C172.401 70.6671 172.845 71.7418 173.732 72.5778C174.62 73.3966 175.764 73.8231 177.163 73.8231C178.546 73.8231 179.69 73.4137 180.561 72.5778Z" fill="white"/>
<path d="M190.257 55.9958H193.893V77.6104H190.257V55.9958Z" fill="white"/>
<path d="M213.251 70.9913H201.045C201.267 72.1343 201.814 73.0385 202.718 73.7208C203.623 74.3862 204.75 74.7274 206.081 74.7274C207.788 74.7274 209.205 74.1644 210.315 73.0385L212.261 75.2733C211.561 76.1092 210.673 76.7404 209.615 77.1669C208.54 77.5934 207.345 77.8152 205.996 77.8152C204.289 77.8152 202.787 77.474 201.472 76.7916C200.175 76.1092 199.168 75.1709 198.451 73.9597C197.734 72.7484 197.392 71.3666 197.392 69.8313C197.392 68.3129 197.734 66.9482 198.434 65.7369C199.116 64.5257 200.072 63.5704 201.302 62.905C202.531 62.2227 203.896 61.8815 205.433 61.8815C206.952 61.8815 208.301 62.2227 209.495 62.888C210.69 63.5533 211.629 64.4916 212.295 65.7199C212.961 66.9311 213.302 68.33 213.302 69.9336C213.302 70.1724 213.285 70.5307 213.251 70.9913ZM202.479 65.8222C201.677 66.5046 201.182 67.4258 201.011 68.5688H209.837C209.683 67.4429 209.205 66.5387 208.403 65.8393C207.601 65.1399 206.611 64.7987 205.433 64.7987C204.272 64.7987 203.282 65.1399 202.479 65.8222Z" fill="white"/>
<path d="M238.209 58.0942C239.523 58.6742 240.53 59.5101 241.23 60.6019C241.93 61.6937 242.271 62.9732 242.271 64.4745C242.271 65.9416 241.93 67.2381 241.23 68.3299C240.53 69.4217 239.523 70.2747 238.209 70.8548C236.894 71.4348 235.358 71.7248 233.582 71.7248H228.973V77.6104H225.184V57.2241H233.582C235.358 57.2241 236.894 57.5141 238.209 58.0942ZM237.167 67.477C238.021 66.7775 238.448 65.771 238.448 64.4745C238.448 63.1779 238.021 62.1714 237.167 61.472C236.314 60.7725 235.068 60.4313 233.412 60.4313H228.99V68.5347H233.412C235.068 68.5176 236.314 68.1764 237.167 67.477Z" fill="white"/>
<path d="M245.993 55.9958H249.629V77.6104H245.993V55.9958Z" fill="white"/>
<path d="M265.624 63.5192C266.836 64.611 267.451 66.2658 267.451 68.4835V77.5934H264.019V75.6998C263.576 76.3821 262.944 76.8939 262.107 77.2522C261.288 77.6104 260.281 77.7981 259.12 77.7981C257.959 77.7981 256.935 77.5934 256.064 77.201C255.194 76.8086 254.511 76.2457 254.033 75.5462C253.555 74.8297 253.316 74.045 253.316 73.1408C253.316 71.7419 253.828 70.616 254.869 69.7801C255.911 68.9271 257.55 68.5177 259.786 68.5177H263.815V68.2788C263.815 67.187 263.49 66.3511 262.842 65.7711C262.193 65.191 261.22 64.901 259.939 64.901C259.069 64.901 258.198 65.0375 257.362 65.3105C256.508 65.5834 255.808 65.9587 255.228 66.4534L253.794 63.8092C254.613 63.1951 255.586 62.7174 256.73 62.3762C257.874 62.0521 259.086 61.8815 260.366 61.8815C262.654 61.8815 264.412 62.4274 265.624 63.5192ZM262.295 74.5397C263.012 74.1303 263.507 73.5332 263.797 72.7484V70.9401H260.042C257.942 70.9401 256.901 71.6225 256.901 73.0043C256.901 73.6697 257.157 74.1815 257.686 74.5738C258.215 74.9662 258.932 75.1539 259.871 75.1539C260.776 75.1539 261.595 74.9491 262.295 74.5397Z" fill="white"/>
<path d="M286.382 62.052L279.093 78.8557C278.41 80.5446 277.591 81.7388 276.618 82.4212C275.645 83.1036 274.467 83.4618 273.084 83.4618C272.299 83.4618 271.548 83.3424 270.779 83.0865C270.028 82.8306 269.397 82.4894 268.919 82.0459L270.37 79.3675C270.711 79.6917 271.138 79.9646 271.616 80.1523C272.094 80.3399 272.572 80.4423 273.05 80.4423C273.699 80.4423 274.228 80.2717 274.637 79.9475C275.047 79.6234 275.44 79.0604 275.781 78.2928L276.037 77.6786L269.243 62.0691H273.033L277.932 73.5672L282.848 62.0691H286.382V62.052Z" fill="white"/>
<path d="M101.847 58.0599L92.0485 52.4132L83.9911 60.1924L91.3486 67.3063L101.83 61.2501C102.41 60.926 102.752 60.3118 102.752 59.6465C102.769 58.9812 102.41 58.3841 101.847 58.0599Z" fill="#FFD109"/>
<path d="M90.3928 51.4579L79.6041 45.2311L55.9952 33.1359L82.6768 58.913L90.3928 51.4579Z" fill="#06EF79"/>
<path d="M56.3877 86.8566L79.6551 74.0449L89.6927 68.2617L82.6766 61.4719L56.3877 86.8566Z" fill="#F93646"/>
<path d="M54.4246 34.1765L54.3905 86.2254L81.3452 60.1924L54.4246 34.1765Z" fill="#05D5FB"/>
<path d="M115.367 45.8965C114.548 45.8965 113.78 45.7259 113.063 45.3676C112.346 45.0094 111.731 44.5317 111.202 43.9176C110.673 43.3205 110.263 42.6381 109.973 41.8704C109.683 41.1198 109.529 40.3351 109.529 39.5162C109.529 38.6632 109.683 37.8614 109.973 37.1108C110.263 36.3602 110.673 35.6778 111.202 35.0977C111.731 34.5177 112.346 34.0571 113.046 33.7159C113.763 33.3747 114.531 33.2212 115.367 33.2212C116.58 33.2212 117.57 33.4771 118.372 33.9718C119.157 34.4836 119.755 35.1319 120.147 35.9507L118.935 36.8037C118.577 36.0701 118.065 35.5413 117.433 35.183C116.801 34.8248 116.102 34.6542 115.333 34.6542C114.702 34.6542 114.121 34.7907 113.609 35.0636C113.097 35.3366 112.653 35.6948 112.278 36.1725C111.902 36.6331 111.629 37.162 111.424 37.742C111.236 38.322 111.134 38.9362 111.134 39.5674C111.134 40.2327 111.236 40.8639 111.458 41.461C111.68 42.0581 111.987 42.5699 112.38 43.0305C112.773 43.4911 113.251 43.8323 113.78 44.0882C114.309 44.3441 114.872 44.4805 115.487 44.4805C116.204 44.4805 116.887 44.2929 117.535 43.9346C118.184 43.5764 118.799 43.0134 119.362 42.2628V43.9005C118.235 45.2312 116.904 45.8965 115.367 45.8965ZM119.174 40.7786H116.477V39.5844H120.506V45.8283H119.174V40.7786Z" fill="white"/>
<path d="M131.414 44.4123V45.8283H122.913V33.3065H131.243V34.7225H124.5V38.7656H130.373V40.0792H124.5V44.3953H131.414V44.4123Z" fill="white"/>
<path d="M142.612 34.7225H138.293V45.8283H136.706V34.7225H132.387V33.3065H142.612V34.7225Z" fill="white"/>
<path d="M148.348 45.8112V33.3065H149.936V45.8112H148.348Z" fill="white"/>
<path d="M154.511 36.2408V45.8283H152.923V33.3065H154.255L161.902 43.0817V33.3236H163.49V45.8112H162.056L154.511 36.2408Z" fill="white"/>
<path d="M176.037 45.8965C175.149 45.8965 174.364 45.7259 173.647 45.3676C172.93 45.0094 172.315 44.5317 171.786 43.9346C171.257 43.3375 170.864 42.6551 170.574 41.8874C170.284 41.1368 170.147 40.3521 170.147 39.5503C170.147 38.7144 170.301 37.9126 170.591 37.1619C170.899 36.4113 171.308 35.7289 171.837 35.1318C172.367 34.5348 172.998 34.0741 173.715 33.7159C174.432 33.3747 175.217 33.2041 176.054 33.2041C176.942 33.2041 177.727 33.3918 178.444 33.75C179.161 34.1083 179.775 34.603 180.287 35.2171C180.8 35.8313 181.209 36.5137 181.482 37.2643C181.773 38.0149 181.909 38.7826 181.909 39.5673C181.909 40.4033 181.756 41.2051 181.465 41.9557C181.175 42.7063 180.765 43.3887 180.219 43.9858C179.69 44.5829 179.058 45.0435 178.341 45.3847C177.659 45.7429 176.873 45.8965 176.037 45.8965ZM171.752 39.5673C171.752 40.1985 171.855 40.8127 172.059 41.4098C172.264 42.0069 172.554 42.5357 172.93 42.9793C173.306 43.4399 173.766 43.7981 174.296 44.0711C174.825 44.344 175.405 44.4805 176.054 44.4805C176.72 44.4805 177.317 44.344 177.846 44.054C178.376 43.764 178.819 43.3887 179.195 42.9281C179.571 42.4504 179.844 41.9216 180.048 41.3415C180.236 40.7615 180.339 40.1644 180.339 39.5673C180.339 38.9361 180.236 38.322 180.031 37.742C179.827 37.1619 179.536 36.6331 179.144 36.1725C178.768 35.7119 178.307 35.3366 177.778 35.0807C177.249 34.8248 176.668 34.6883 176.037 34.6883C175.371 34.6883 174.774 34.8248 174.244 35.0977C173.715 35.3707 173.271 35.746 172.896 36.2237C172.52 36.7013 172.247 37.2131 172.042 37.7931C171.855 38.3561 171.752 38.9532 171.752 39.5673Z" fill="white"/>
<path d="M185.733 36.2408V45.8283H184.146V33.3065H185.477L193.125 43.0817V33.3236H194.712V45.8112H193.261L185.733 36.2408Z" fill="white"/>
</g>
<defs>
<filter id="filter0_d_13_73" x="0" y="0" width="317" height="138.099" filterUnits="userSpaceOnUse" color-interpolation-filters="sRGB">
<feFlood flood-opacity="0" result="BackgroundImageFix"/>
<feColorMatrix in="SourceAlpha" type="matrix" values="0 0 0 0 0 0 0 0 0 0 0 0 0 0 0 0 0 0 127 0" result="hardAlpha"/>
<feOffset dx="-10" dy="10"/>
<feGaussianBlur stdDeviation="15"/>
<feComposite in2="hardAlpha" operator="out"/>
<feColorMatrix type="matrix" values="0 0 0 0 0 0 0 0 0 0 0 0 0 0 0 0 0 0 0.25 0"/>
<feBlend mode="normal" in2="BackgroundImageFix" result="effect1_dropShadow_13_73"/>
<feBlend mode="normal" in="SourceGraphic" in2="effect1_dropShadow_13_73" result="shape"/>
</filter>
</defs>
</svg>
