<svg width="24" height="23" viewBox="0 0 24 23" fill="none" xmlns="http://www.w3.org/2000/svg">
<path d="M16.6582 7.13922C18.5516 7.13922 20.3675 7.89139 21.7064 9.23025C23.0452 10.5691 23.7974 12.385 23.7974 14.2784V22.6075H19.0379V14.2784C19.0379 13.6473 18.7872 13.042 18.3409 12.5957C17.8946 12.1494 17.2893 11.8987 16.6582 11.8987C16.027 11.8987 15.4217 12.1494 14.9754 12.5957C14.5291 13.042 14.2784 13.6473 14.2784 14.2784V22.6075H9.51895V14.2784C9.51895 12.385 10.2711 10.5691 11.61 9.23025C12.9488 7.89139 14.7647 7.13922 16.6582 7.13922Z" fill="white"/>
<path d="M4.75948 8.3291H0V22.6075H4.75948V8.3291Z" fill="white"/>
<path d="M2.37974 4.75948C3.69403 4.75948 4.75948 3.69403 4.75948 2.37974C4.75948 1.06544 3.69403 0 2.37974 0C1.06544 0 0 1.06544 0 2.37974C0 3.69403 1.06544 4.75948 2.37974 4.75948Z" fill="white"/>
</svg>
