<svg width="772" height="1446" viewBox="0 0 772 1446" fill="none" xmlns="http://www.w3.org/2000/svg">
<path opacity="0.2" d="M6.78474 1C5.42054 50.5735 3.82898 100.374 2.46478 149.948C1.10058 197.248 0.873213 248.413 29.5214 286.162C75.4494 346.65 175.945 343.922 237.334 310.039C285.764 283.205 295.086 216.349 251.886 179.055C193.907 129.027 110.009 172.461 89.7735 238.18C64.3085 321.181 126.38 360.749 196.181 380.078C257.115 397.134 351.245 405.32 396.491 453.984C464.928 527.207 460.608 689.572 346.698 710.948C328.736 714.359 307.818 712.994 295.995 699.123C291.448 693.893 288.719 687.298 287.355 680.476C270.075 599.293 361.704 534.939 419.682 499.237C437.644 488.094 455.834 477.179 476.069 470.812C510.629 459.896 554.283 453.984 589.298 466.036C639.773 483.319 651.142 538.577 646.822 585.877C637.727 684.569 562.014 734.825 507.446 809.185C449.467 888.321 408.996 980.419 390.579 1076.84C381.712 1123.68 378.074 1172.8 391.944 1218.51C414.453 1292.19 480.162 1345.63 550.646 1377.01C621.129 1408.39 697.979 1421.8 771.873 1444.09" stroke="#231F20" stroke-width="3" stroke-miterlimit="10"/>
</svg>
