<svg width="24" height="20" viewBox="0 0 24 20" fill="none" xmlns="http://www.w3.org/2000/svg">
<path d="M24 0.0112081C22.9553 0.764094 21.7987 1.33993 20.5745 1.71654C19.9175 0.944696 19.0444 0.39763 18.0731 0.149336C17.1019 -0.0989584 16.0795 -0.0365016 15.1441 0.328259C14.2087 0.69302 13.4056 1.34249 12.8433 2.18882C12.2809 3.03515 11.9866 4.03751 12 5.06034V6.17494C10.0829 6.22573 8.18321 5.79131 6.47019 4.91037C4.75717 4.02942 3.28398 2.72931 2.18182 1.12581C2.18182 1.12581 -2.18182 11.1572 7.63636 15.6156C5.38967 17.1738 2.71326 17.9551 0 17.8448C9.81818 23.4178 21.8182 17.8448 21.8182 5.0269C21.8172 4.71643 21.788 4.40673 21.7309 4.10178C22.8443 2.97993 23.63 1.56352 24 0.0112081Z" fill="white"/>
</svg>
