<svg width="162" height="61" viewBox="0 0 162 61" fill="none" xmlns="http://www.w3.org/2000/svg">
<path d="M0.123047 5.96533L0.123047 28.8629H23.0206V5.96533H0.123047ZM25.4011 5.96533V28.8629H48.2946V5.96533H25.4011ZM0.123047 31.2434L0.123047 54.1369H23.0206V31.2434H0.123047ZM25.4011 31.2434V54.1369H48.2946V31.2434H25.4011Z" fill="black"/>
<path d="M56.8146 6.08555H59.5282L64.6282 19.6896L69.7161 6.08555H72.4297L65.6943 23.7236H63.538L56.8146 6.08555ZM55.579 6.08555H58.1593L58.6075 17.8604V23.7236H55.579V6.08555ZM71.085 6.08555H73.6774V23.7236H70.6368V17.8604L71.085 6.08555ZM80.1221 10.6162V23.7236H77.1905V10.6162H80.1221ZM76.9967 7.17582C76.9967 6.73163 77.1421 6.36417 77.4328 6.07344C77.7316 5.77462 78.1435 5.62521 78.6684 5.62521C79.1853 5.62521 79.5931 5.77462 79.8919 6.07344C80.1908 6.36417 80.3402 6.73163 80.3402 7.17582C80.3402 7.61192 80.1908 7.97534 79.8919 8.26608C79.5931 8.55682 79.1853 8.70219 78.6684 8.70219C78.1435 8.70219 77.7316 8.55682 77.4328 8.26608C77.1421 7.97534 76.9967 7.61192 76.9967 7.17582ZM88.6746 21.64C89.1511 21.64 89.5792 21.5471 89.9587 21.3614C90.3464 21.1676 90.6573 20.9011 90.8915 20.5619C91.1338 20.2227 91.2671 19.831 91.2913 19.3868H94.0412C94.025 20.2348 93.7747 21.006 93.2901 21.7006C92.8055 22.3951 92.1635 22.9483 91.364 23.3602C90.5644 23.764 89.6801 23.9659 88.711 23.9659C87.7096 23.9659 86.8373 23.7963 86.0944 23.4571C85.3514 23.1099 84.7335 22.6334 84.2409 22.0277C83.7483 21.422 83.3768 20.7234 83.1264 19.9319C82.8841 19.1405 82.763 18.2925 82.763 17.388V16.964C82.763 16.0595 82.8841 15.2115 83.1264 14.42C83.3768 13.6205 83.7483 12.9179 84.2409 12.3122C84.7335 11.7065 85.3514 11.234 86.0944 10.8948C86.8373 10.5476 87.7055 10.3739 88.6989 10.3739C89.7488 10.3739 90.6694 10.5839 91.4609 11.0039C92.2523 11.4157 92.8742 11.9932 93.3265 12.7362C93.7868 13.4711 94.025 14.3272 94.0412 15.3044H91.2913C91.2671 14.8198 91.1459 14.3837 90.9279 13.996C90.7179 13.6003 90.4191 13.2853 90.0314 13.0511C89.6519 12.8169 89.1956 12.6998 88.6625 12.6998C88.073 12.6998 87.5844 12.821 87.1967 13.0633C86.8091 13.2975 86.5062 13.6205 86.2882 14.0324C86.0701 14.4362 85.9126 14.8925 85.8157 15.4013C85.7269 15.902 85.6825 16.4229 85.6825 16.964V17.388C85.6825 17.9291 85.7269 18.454 85.8157 18.9628C85.9046 19.4716 86.058 19.9279 86.2761 20.3317C86.5022 20.7274 86.8091 21.0464 87.1967 21.2887C87.5844 21.5229 88.077 21.64 88.6746 21.64ZM99.2139 13.1117V23.7236H96.2944V10.6162H99.0806L99.2139 13.1117ZM103.224 10.5314L103.199 13.245C103.022 13.2127 102.828 13.1884 102.618 13.1723C102.416 13.1561 102.214 13.1481 102.012 13.1481C101.512 13.1481 101.071 13.2207 100.692 13.3661C100.312 13.5034 99.9932 13.7053 99.7348 13.9718C99.4844 14.2302 99.2906 14.5452 99.1533 14.9167C99.016 15.2882 98.9353 15.7041 98.911 16.1645L98.2448 16.2129C98.2448 15.3892 98.3255 14.626 98.487 13.9234C98.6486 13.2207 98.8908 12.6029 99.2139 12.0699C99.545 11.5369 99.9569 11.121 100.45 10.8221C100.95 10.5233 101.528 10.3739 102.182 10.3739C102.36 10.3739 102.549 10.3901 102.751 10.4224C102.961 10.4547 103.119 10.491 103.224 10.5314ZM104.181 17.3153V17.0367C104.181 16.0918 104.318 15.2155 104.593 14.4079C104.867 13.5922 105.263 12.8856 105.78 12.288C106.305 11.6822 106.943 11.2138 107.694 10.8827C108.453 10.5435 109.309 10.3739 110.262 10.3739C111.223 10.3739 112.079 10.5435 112.83 10.8827C113.589 11.2138 114.231 11.6822 114.756 12.288C115.281 12.8856 115.681 13.5922 115.956 14.4079C116.23 15.2155 116.367 16.0918 116.367 17.0367V17.3153C116.367 18.2602 116.23 19.1364 115.956 19.944C115.681 20.7516 115.281 21.4583 114.756 22.064C114.231 22.6616 113.593 23.13 112.842 23.4692C112.091 23.8004 111.239 23.9659 110.286 23.9659C109.325 23.9659 108.465 23.8004 107.706 23.4692C106.955 23.13 106.317 22.6616 105.792 22.064C105.267 21.4583 104.867 20.7516 104.593 19.944C104.318 19.1364 104.181 18.2602 104.181 17.3153ZM107.1 17.0367V17.3153C107.1 17.9048 107.161 18.4621 107.282 18.987C107.403 19.512 107.593 19.9723 107.851 20.368C108.11 20.7638 108.441 21.0747 108.845 21.3008C109.248 21.5269 109.729 21.64 110.286 21.64C110.827 21.64 111.296 21.5269 111.691 21.3008C112.095 21.0747 112.426 20.7638 112.685 20.368C112.943 19.9723 113.133 19.512 113.254 18.987C113.383 18.4621 113.448 17.9048 113.448 17.3153V17.0367C113.448 16.4552 113.383 15.906 113.254 15.3892C113.133 14.8642 112.939 14.3998 112.673 13.996C112.414 13.5922 112.083 13.2773 111.679 13.0511C111.284 12.8169 110.811 12.6998 110.262 12.6998C109.713 12.6998 109.236 12.8169 108.832 13.0511C108.437 13.2773 108.11 13.5922 107.851 13.996C107.593 14.3998 107.403 14.8642 107.282 15.3892C107.161 15.906 107.1 16.4552 107.1 17.0367ZM126.168 20.1742C126.168 19.8835 126.095 19.621 125.95 19.3868C125.804 19.1445 125.526 18.9265 125.114 18.7326C124.71 18.5388 124.112 18.3611 123.321 18.1996C122.626 18.0462 121.988 17.8645 121.407 17.6545C120.833 17.4364 120.341 17.174 119.929 16.8671C119.517 16.5602 119.198 16.1968 118.972 15.7768C118.746 15.3568 118.633 14.8723 118.633 14.3231C118.633 13.7901 118.75 13.2853 118.984 12.8089C119.218 12.3324 119.553 11.9124 119.99 11.549C120.426 11.1856 120.955 10.8989 121.576 10.6889C122.206 10.4789 122.909 10.3739 123.684 10.3739C124.783 10.3739 125.724 10.5597 126.507 10.9312C127.298 11.2946 127.904 11.7913 128.324 12.4212C128.744 13.0431 128.954 13.7457 128.954 14.5291H126.034C126.034 14.1818 125.946 13.8587 125.768 13.5599C125.598 13.253 125.34 13.0067 124.993 12.821C124.645 12.6271 124.209 12.5302 123.684 12.5302C123.184 12.5302 122.768 12.611 122.437 12.7725C122.114 12.926 121.871 13.1279 121.71 13.3782C121.556 13.6286 121.48 13.9032 121.48 14.202C121.48 14.42 121.52 14.6179 121.601 14.7956C121.69 14.9652 121.835 15.1226 122.037 15.268C122.239 15.4053 122.513 15.5345 122.861 15.6557C123.216 15.7768 123.66 15.8939 124.193 16.007C125.195 16.2169 126.055 16.4875 126.773 16.8186C127.5 17.1417 128.057 17.5616 128.445 18.0785C128.833 18.5873 129.027 19.2334 129.027 20.0167C129.027 20.5982 128.901 21.1312 128.651 21.6158C128.409 22.0923 128.053 22.5082 127.585 22.8635C127.117 23.2108 126.555 23.4814 125.901 23.6752C125.255 23.869 124.528 23.9659 123.721 23.9659C122.533 23.9659 121.528 23.7559 120.704 23.336C119.88 22.908 119.255 22.3628 118.827 21.7006C118.407 21.0303 118.197 20.3357 118.197 19.617H121.019C121.052 20.1581 121.201 20.5901 121.467 20.9132C121.742 21.2281 122.081 21.4583 122.485 21.6037C122.897 21.741 123.321 21.8096 123.757 21.8096C124.282 21.8096 124.722 21.741 125.077 21.6037C125.433 21.4583 125.703 21.2645 125.889 21.0222C126.075 20.7718 126.168 20.4892 126.168 20.1742ZM131.025 17.3153V17.0367C131.025 16.0918 131.163 15.2155 131.437 14.4079C131.712 13.5922 132.108 12.8856 132.624 12.288C133.149 11.6822 133.787 11.2138 134.539 10.8827C135.298 10.5435 136.154 10.3739 137.107 10.3739C138.068 10.3739 138.924 10.5435 139.675 10.8827C140.434 11.2138 141.076 11.6822 141.601 12.288C142.126 12.8856 142.526 13.5922 142.8 14.4079C143.075 15.2155 143.212 16.0918 143.212 17.0367V17.3153C143.212 18.2602 143.075 19.1364 142.8 19.944C142.526 20.7516 142.126 21.4583 141.601 22.064C141.076 22.6616 140.438 23.13 139.687 23.4692C138.936 23.8004 138.084 23.9659 137.131 23.9659C136.17 23.9659 135.31 23.8004 134.551 23.4692C133.8 23.13 133.162 22.6616 132.637 22.064C132.112 21.4583 131.712 20.7516 131.437 19.944C131.163 19.1364 131.025 18.2602 131.025 17.3153ZM133.945 17.0367V17.3153C133.945 17.9048 134.005 18.4621 134.127 18.987C134.248 19.512 134.438 19.9723 134.696 20.368C134.954 20.7638 135.286 21.0747 135.689 21.3008C136.093 21.5269 136.574 21.64 137.131 21.64C137.672 21.64 138.14 21.5269 138.536 21.3008C138.94 21.0747 139.271 20.7638 139.53 20.368C139.788 19.9723 139.978 19.512 140.099 18.987C140.228 18.4621 140.293 17.9048 140.293 17.3153V17.0367C140.293 16.4552 140.228 15.906 140.099 15.3892C139.978 14.8642 139.784 14.3998 139.517 13.996C139.259 13.5922 138.928 13.2773 138.524 13.0511C138.128 12.8169 137.656 12.6998 137.107 12.6998C136.558 12.6998 136.081 12.8169 135.677 13.0511C135.282 13.2773 134.954 13.5922 134.696 13.996C134.438 14.3998 134.248 14.8642 134.127 15.3892C134.005 15.906 133.945 16.4552 133.945 17.0367ZM149.608 23.7236H146.689V9.35635C146.689 8.37915 146.871 7.55943 147.234 6.89719C147.606 6.22688 148.135 5.72213 148.821 5.38293C149.507 5.03566 150.319 4.86203 151.256 4.86203C151.547 4.86203 151.833 4.88222 152.116 4.9226C152.399 4.9549 152.673 5.0074 152.94 5.08008L152.867 7.3333C152.706 7.29292 152.528 7.26465 152.334 7.2485C152.148 7.23235 151.946 7.22427 151.728 7.22427C151.284 7.22427 150.901 7.30907 150.578 7.47867C150.263 7.64019 150.02 7.87843 149.851 8.1934C149.689 8.50836 149.608 8.89601 149.608 9.35635V23.7236ZM152.31 10.6162V12.7483H144.678V10.6162H152.31ZM160.438 10.6162V12.7483H153.049V10.6162H160.438ZM155.181 7.40598H158.1V20.1015C158.1 20.5053 158.157 20.8163 158.27 21.0343C158.391 21.2443 158.557 21.3856 158.767 21.4583C158.977 21.531 159.223 21.5673 159.506 21.5673C159.708 21.5673 159.901 21.5552 160.087 21.531C160.273 21.5068 160.422 21.4825 160.535 21.4583L160.547 23.6873C160.305 23.76 160.022 23.8246 159.699 23.8811C159.384 23.9376 159.021 23.9659 158.609 23.9659C157.939 23.9659 157.345 23.8488 156.828 23.6146C156.312 23.3723 155.908 22.9806 155.617 22.4395C155.326 21.8984 155.181 21.1797 155.181 20.2832V7.40598ZM67.2327 44.4509V46.8616H57.8686V44.4509H67.2327ZM58.6196 37.0855V54.7236H55.579V37.0855H58.6196ZM69.5708 37.0855V54.7236H66.5422V37.0855H69.5708ZM72.3449 48.3153V48.0367C72.3449 47.0918 72.4822 46.2155 72.7568 45.4079C73.0313 44.5922 73.4271 43.8856 73.9439 43.288C74.4689 42.6822 75.1069 42.2138 75.858 41.8827C76.6171 41.5435 77.4732 41.3739 78.4261 41.3739C79.3872 41.3739 80.2433 41.5435 80.9943 41.8827C81.7535 42.2138 82.3955 42.6822 82.9205 43.288C83.4454 43.8856 83.8452 44.5922 84.1198 45.4079C84.3943 46.2155 84.5316 47.0918 84.5316 48.0367V48.3153C84.5316 49.2602 84.3943 50.1364 84.1198 50.944C83.8452 51.7516 83.4454 52.4583 82.9205 53.064C82.3955 53.6616 81.7575 54.13 81.0064 54.4692C80.2554 54.8004 79.4033 54.9659 78.4504 54.9659C77.4893 54.9659 76.6292 54.8004 75.8701 54.4692C75.119 54.13 74.481 53.6616 73.9561 53.064C73.4311 52.4583 73.0313 51.7516 72.7568 50.944C72.4822 50.1364 72.3449 49.2602 72.3449 48.3153ZM75.2644 48.0367V48.3153C75.2644 48.9048 75.3249 49.4621 75.4461 49.987C75.5672 50.512 75.757 50.9723 76.0154 51.368C76.2739 51.7638 76.605 52.0747 77.0088 52.3008C77.4126 52.5269 77.8931 52.64 78.4504 52.64C78.9915 52.64 79.4599 52.5269 79.8556 52.3008C80.2594 52.0747 80.5905 51.7638 80.849 51.368C81.1074 50.9723 81.2972 50.512 81.4183 49.987C81.5475 49.4621 81.6121 48.9048 81.6121 48.3153V48.0367C81.6121 47.4552 81.5475 46.906 81.4183 46.3892C81.2972 45.8642 81.1034 45.3998 80.8368 44.996C80.5784 44.5922 80.2473 44.2773 79.8435 44.0511C79.4478 43.8169 78.9753 43.6998 78.4261 43.6998C77.877 43.6998 77.4005 43.8169 76.9967 44.0511C76.601 44.2773 76.2739 44.5922 76.0154 44.996C75.757 45.3998 75.5672 45.8642 75.4461 46.3892C75.3249 46.906 75.2644 47.4552 75.2644 48.0367ZM90.1041 36.1164V54.7236H87.1725V36.1164H90.1041ZM92.745 48.3153V48.0367C92.745 47.0918 92.8823 46.2155 93.1569 45.4079C93.4314 44.5922 93.8272 43.8856 94.344 43.288C94.869 42.6822 95.507 42.2138 96.2581 41.8827C97.0172 41.5435 97.8733 41.3739 98.8262 41.3739C99.7873 41.3739 100.643 41.5435 101.394 41.8827C102.154 42.2138 102.796 42.6822 103.321 43.288C103.846 43.8856 104.245 44.5922 104.52 45.4079C104.794 46.2155 104.932 47.0918 104.932 48.0367V48.3153C104.932 49.2602 104.794 50.1364 104.52 50.944C104.245 51.7516 103.846 52.4583 103.321 53.064C102.796 53.6616 102.158 54.13 101.407 54.4692C100.655 54.8004 99.8034 54.9659 98.8505 54.9659C97.8894 54.9659 97.0293 54.8004 96.2702 54.4692C95.5191 54.13 94.8811 53.6616 94.3561 53.064C93.8312 52.4583 93.4314 51.7516 93.1569 50.944C92.8823 50.1364 92.745 49.2602 92.745 48.3153ZM95.6645 48.0367V48.3153C95.6645 48.9048 95.725 49.4621 95.8462 49.987C95.9673 50.512 96.1571 50.9723 96.4155 51.368C96.674 51.7638 97.0051 52.0747 97.4089 52.3008C97.8127 52.5269 98.2932 52.64 98.8505 52.64C99.3916 52.64 99.86 52.5269 100.256 52.3008C100.66 52.0747 100.991 51.7638 101.249 51.368C101.507 50.9723 101.697 50.512 101.818 49.987C101.948 49.4621 102.012 48.9048 102.012 48.3153V48.0367C102.012 47.4552 101.948 46.906 101.818 46.3892C101.697 45.8642 101.503 45.3998 101.237 44.996C100.979 44.5922 100.647 44.2773 100.244 44.0511C99.8479 43.8169 99.3754 43.6998 98.8262 43.6998C98.2771 43.6998 97.8006 43.8169 97.3968 44.0511C97.0011 44.2773 96.674 44.5922 96.4155 44.996C96.1571 45.3998 95.9673 45.8642 95.8462 46.3892C95.725 46.906 95.6645 47.4552 95.6645 48.0367ZM118.718 52.3129V54.7236H109.862V52.3129H118.718ZM110.71 37.0855V54.7236H107.67V37.0855H110.71ZM126.555 54.9659C125.586 54.9659 124.71 54.8084 123.927 54.4935C123.151 54.1704 122.489 53.7222 121.94 53.1488C121.399 52.5754 120.983 51.9011 120.692 51.1258C120.401 50.3505 120.256 49.5146 120.256 48.6181V48.1336C120.256 47.1079 120.405 46.1792 120.704 45.3473C121.003 44.5155 121.419 43.8048 121.952 43.2153C122.485 42.6176 123.115 42.1613 123.842 41.8464C124.569 41.5314 125.356 41.3739 126.204 41.3739C127.141 41.3739 127.961 41.5314 128.663 41.8464C129.366 42.1613 129.947 42.6055 130.408 43.1789C130.876 43.7442 131.223 44.4186 131.449 45.202C131.684 45.9854 131.801 46.8495 131.801 47.7944V49.0421H121.673V46.9464H128.918V46.7162C128.901 46.1913 128.796 45.6987 128.603 45.2383C128.417 44.778 128.13 44.4065 127.743 44.1238C127.355 43.8412 126.838 43.6998 126.192 43.6998C125.707 43.6998 125.275 43.8048 124.896 44.0148C124.524 44.2167 124.213 44.5115 123.963 44.8991C123.713 45.2868 123.519 45.7552 123.381 46.3044C123.252 46.8455 123.188 47.4552 123.188 48.1336V48.6181C123.188 49.1915 123.264 49.7246 123.418 50.2172C123.579 50.7018 123.814 51.1258 124.12 51.4892C124.427 51.8526 124.799 52.1393 125.235 52.3493C125.671 52.5512 126.168 52.6521 126.725 52.6521C127.428 52.6521 128.053 52.5108 128.603 52.2281C129.152 51.9455 129.628 51.5457 130.032 51.0288L131.571 52.5189C131.288 52.9308 130.92 53.3265 130.468 53.7061C130.016 54.0775 129.463 54.3804 128.809 54.6146C128.162 54.8488 127.411 54.9659 126.555 54.9659ZM136.973 44.4146V54.7236H134.054V41.6162H136.804L136.973 44.4146ZM136.453 47.6854L135.508 47.6732C135.516 46.7445 135.645 45.8925 135.895 45.1172C136.154 44.3419 136.509 43.6756 136.961 43.1184C137.422 42.5611 137.971 42.1331 138.609 41.8343C139.247 41.5274 139.958 41.3739 140.741 41.3739C141.371 41.3739 141.94 41.4628 142.449 41.6404C142.966 41.81 143.406 42.0887 143.769 42.4763C144.141 42.864 144.424 43.3687 144.617 43.9906C144.811 44.6043 144.908 45.3595 144.908 46.2559V54.7236H141.977V46.2438C141.977 45.6139 141.884 45.1172 141.698 44.7538C141.52 44.3823 141.258 44.1198 140.911 43.9663C140.571 43.8048 140.147 43.7241 139.639 43.7241C139.138 43.7241 138.69 43.829 138.294 44.039C137.898 44.249 137.563 44.5357 137.288 44.8991C137.022 45.2625 136.816 45.6825 136.671 46.159C136.525 46.6355 136.453 47.1443 136.453 47.6854ZM155.241 51.1742C155.241 50.8835 155.169 50.621 155.023 50.3868C154.878 50.1445 154.599 49.9265 154.188 49.7326C153.784 49.5388 153.186 49.3611 152.395 49.1996C151.7 49.0462 151.062 48.8645 150.481 48.6545C149.907 48.4364 149.415 48.174 149.003 47.8671C148.591 47.5602 148.272 47.1968 148.046 46.7768C147.82 46.3568 147.707 45.8723 147.707 45.3231C147.707 44.7901 147.824 44.2853 148.058 43.8089C148.292 43.3324 148.627 42.9124 149.063 42.549C149.499 42.1856 150.028 41.8989 150.65 41.6889C151.28 41.4789 151.983 41.3739 152.758 41.3739C153.856 41.3739 154.797 41.5597 155.581 41.9312C156.372 42.2946 156.978 42.7913 157.398 43.4212C157.818 44.0431 158.028 44.7457 158.028 45.5291H155.108C155.108 45.1818 155.019 44.8587 154.842 44.5599C154.672 44.253 154.414 44.0067 154.066 43.821C153.719 43.6271 153.283 43.5302 152.758 43.5302C152.257 43.5302 151.841 43.611 151.51 43.7725C151.187 43.926 150.945 44.1279 150.783 44.3782C150.63 44.6286 150.553 44.9032 150.553 45.202C150.553 45.42 150.594 45.6179 150.674 45.7956C150.763 45.9652 150.909 46.1226 151.111 46.268C151.312 46.4053 151.587 46.5345 151.934 46.6557C152.29 46.7768 152.734 46.8939 153.267 47.007C154.268 47.2169 155.128 47.4875 155.847 47.8186C156.574 48.1417 157.131 48.5616 157.519 49.0785C157.907 49.5873 158.1 50.2334 158.1 51.0167C158.1 51.5982 157.975 52.1312 157.725 52.6158C157.483 53.0923 157.127 53.5082 156.659 53.8635C156.19 54.2108 155.629 54.4814 154.975 54.6752C154.329 54.869 153.602 54.9659 152.794 54.9659C151.607 54.9659 150.602 54.7559 149.778 54.336C148.954 53.908 148.328 53.3628 147.9 52.7006C147.48 52.0303 147.27 51.3357 147.27 50.617H150.093C150.125 51.1581 150.275 51.5901 150.541 51.9132C150.816 52.2281 151.155 52.4583 151.559 52.6037C151.971 52.741 152.395 52.8096 152.831 52.8096C153.356 52.8096 153.796 52.741 154.151 52.6037C154.507 52.4583 154.777 52.2645 154.963 52.0222C155.149 51.7718 155.241 51.4892 155.241 51.1742Z" fill="black"/>
</svg>
