<svg width="194" height="74" viewBox="0 0 194 74" fill="none" xmlns="http://www.w3.org/2000/svg">
<g clip-path="url(#clip0_212_644)">
<path d="M30.8885 17.7017L15.889 9.04244L0.893555 17.7017V9.04244L15.8912 0.382812L30.8908 9.04244V17.7017H30.8885Z" fill="#5A5A5A"/>
<path d="M0.893555 24.9735H8.74989V44.0622C8.74989 48.9943 12.4327 51.3981 15.8912 51.3981C19.3795 51.3981 23.0344 48.9302 23.0344 43.9962V24.9738H30.8908V44.517C30.8908 49.0603 29.4623 52.5661 26.606 54.9699C23.7476 57.3722 20.1778 58.5417 15.8249 58.5417C11.476 58.5417 7.90441 57.3741 5.11417 54.9703C2.32167 52.5676 0.893555 49.1923 0.893555 44.7109L0.893555 24.9735ZM98.8117 48.6975C96.4336 50.8154 93.7245 51.8529 90.6352 51.8529C84.9993 51.8529 81.2203 48.642 80.7934 43.6692H106.177C106.177 43.6692 106.348 42.0642 106.348 40.5568C106.348 35.8811 104.853 31.9847 101.801 28.8036C98.8162 25.6225 94.9222 24.0638 90.1804 24.0638C85.1825 24.0638 81.0902 25.6225 77.8429 28.8036C74.6619 31.9847 73.0396 36.1395 73.0396 41.3359V41.5924C73.0396 46.7225 74.6619 50.8132 77.8429 53.866C81.0242 56.917 85.2448 58.4757 90.3746 58.4757C96.3397 58.4757 101.085 56.1228 104.646 52.0664L98.8117 48.6975ZM83.8804 32.7638C85.6309 31.3997 87.7767 30.6866 90.1781 30.6866C92.4498 30.6866 94.3327 31.3997 95.9573 32.8302C97.5073 34.1324 98.3444 35.7318 98.4168 37.5699H80.9944C81.2459 35.6696 82.2068 34.0687 83.8827 32.7661L83.8804 32.7642V32.7638ZM177.896 62.8866C174.709 70.4122 171.374 72.9721 166.261 72.9721H162.717V66.0077H165.582C167.341 66.0077 168.977 65.3458 170.535 61.7507L172.094 58.151L158.652 24.9735H166.639L176.184 48.8683L185.989 24.9735H193.974L177.898 62.8862H177.896V62.8866ZM61.4748 12.4434V27.9369C58.9002 25.6312 54.8953 24.2584 51.0224 24.2584C46.4111 24.2584 42.5171 25.8808 39.3362 29.1901C36.2193 32.4372 34.6607 36.4619 34.6607 41.3318C34.6607 46.2039 36.2193 50.2282 39.3362 53.5394C42.5171 56.7865 46.4134 58.4116 51.0228 58.4116C56.3385 58.4116 59.6986 56.3215 61.4748 54.684V57.6965H69.2674V12.4452H61.4748V12.4434ZM59.1371 48.4776C57.2542 50.3606 54.8527 51.3362 52.0602 51.3362C49.2677 51.3362 46.9964 50.3606 45.1131 48.4776C43.2984 46.5946 42.387 44.1927 42.387 41.3359C42.387 38.4773 43.2966 36.0754 45.1135 34.1924C46.9964 32.3094 49.2677 31.3356 52.0598 31.3356C54.8527 31.3356 57.2542 32.3094 59.1371 34.1924C61.0841 36.0754 62.0619 38.4773 62.0619 41.3359C62.0619 44.1927 61.0841 46.5946 59.1371 48.4776ZM146.539 24.3244C140.621 24.3244 137.545 26.7795 135.438 29.1452C134.595 27.5376 132.221 24.3244 126.674 24.3244C121.986 24.3244 119.224 26.6943 117.844 28.3808V24.9776H110.12V57.7007H117.844V38.8703C117.844 34.4548 120.572 31.2738 124.206 31.2738C127.91 31.2738 130.051 34.0664 130.051 38.5456V57.6984H137.778V38.868C137.778 34.3888 140.437 31.2719 144.268 31.2719C147.969 31.2719 150.111 34.0641 150.111 38.5414V57.6965H157.903V37.4394C157.903 28.908 153.317 24.3263 146.539 24.3263V24.324V24.3244Z" fill="black"/>
</g>
<defs>
<clipPath id="clip0_212_644">
<rect width="193.08" height="72.7858" fill="white" transform="translate(0.893555 0.382812)"/>
</clipPath>
</defs>
</svg>
