<svg width="197" height="49" viewBox="0 0 197 49" fill="none" xmlns="http://www.w3.org/2000/svg">
<path d="M61.3254 31.2497C60.2638 31.9843 59.079 32.4297 57.8078 32.6325C56.5365 32.8352 55.2752 32.7954 54.0073 32.7954H27.8066C26.5353 32.7954 25.2707 32.8419 23.9961 32.6325C22.7356 32.4374 21.5341 31.9651 20.4785 31.2497C19.427 30.5247 18.5669 29.5561 17.9717 28.4267C17.3765 27.2974 17.064 26.0409 17.0608 24.7647C17.0608 22.1188 18.3487 19.7289 20.4852 18.283C21.5302 17.5351 22.7282 17.0897 23.9762 16.8869C25.2241 16.6842 26.4721 16.6842 27.7733 16.6842H53.9807C55.2286 16.6842 56.5265 16.6376 57.7745 16.8371C59.0225 17.0365 60.2205 17.4819 61.2721 18.1833C62.3258 18.9029 63.1864 19.87 63.7783 20.9996C64.3701 22.1292 64.6752 23.3867 64.6666 24.6616C64.6666 27.2543 63.3654 29.6476 61.2222 31.1434L61.3254 31.2497ZM71.8882 6.13724C69.0955 3.8995 65.8382 2.312 62.3537 1.49035C60.3649 1.02451 58.3326 0.76827 56.2902 0.72584C54.796 0.67598 53.2984 0.692601 51.751 0.692601L30.1262 0.692601C28.6053 0.692601 27.0811 0.67598 25.5603 0.72584C23.5148 0.770758 21.4795 1.02696 19.4868 1.49035C16.0027 2.31661 12.746 3.90613 9.95235 6.14389C7.15128 8.37599 4.88958 11.2096 3.33518 14.4344C1.78079 17.6592 0.973629 21.1923 0.973633 24.7713C0.973633 32.0242 4.26827 38.8682 9.9224 43.4054C12.7179 45.6402 15.9739 47.2294 19.4569 48.059C21.4468 48.5243 23.4803 48.7794 25.5237 48.8201C27.0212 48.8733 28.5188 48.86 30.0663 48.86H51.6844C53.1786 48.86 54.7261 48.8733 56.2237 48.8201C58.2573 48.7815 60.281 48.5263 62.2605 48.059C65.7422 47.2194 68.9976 45.6288 71.7983 43.3988C74.6197 41.1806 76.8998 38.3513 78.4667 35.1245C80.0336 31.8977 80.8463 28.3576 80.8436 24.7713C80.8436 17.5218 77.549 10.6744 71.8882 6.13724Z" fill="black"/>
<path d="M107.428 27.1602C107.428 29.1114 106.988 30.8365 106.107 32.3355C105.251 33.8108 104.085 34.9648 102.61 35.7976C101.158 36.6305 99.5282 37.0469 97.7199 37.0469C95.9115 37.0469 94.2696 36.6305 92.7944 35.7976C91.3429 34.9648 90.177 33.8108 89.2966 32.3355C88.44 30.8365 88.0117 29.1114 88.0117 27.1602C88.0117 25.209 88.44 23.4958 89.2966 22.0206C90.177 20.5215 91.3429 19.3556 92.7944 18.5228C94.2696 17.6662 95.9115 17.2379 97.7199 17.2379C99.5282 17.2379 101.158 17.6662 102.61 18.5228C104.085 19.3556 105.251 20.5215 106.107 22.0206C106.988 23.4958 107.428 25.209 107.428 27.1602ZM103.145 27.1602C103.145 25.9467 102.895 24.8997 102.395 24.0193C101.92 23.1151 101.265 22.4132 100.432 21.9135C99.6234 21.4138 98.7192 21.164 97.7199 21.164C96.7205 21.164 95.8044 21.4138 94.9716 21.9135C94.1626 22.4132 93.5082 23.1151 93.0085 24.0193C92.5326 24.8997 92.2947 25.9467 92.2947 27.1602C92.2947 28.3499 92.5326 29.3969 93.0085 30.3011C93.5082 31.1815 94.1626 31.8715 94.9716 32.3712C95.8044 32.8709 96.7205 33.1208 97.7199 33.1208C98.7192 33.1208 99.6234 32.8709 100.432 32.3712C101.265 31.8715 101.92 31.1815 102.395 30.3011C102.895 29.3969 103.145 28.3499 103.145 27.1602ZM119.671 17.2379C121.027 17.2379 122.205 17.3806 123.205 17.6662C124.228 17.9517 125.013 18.3562 125.56 18.8797C126.131 19.3794 126.417 19.9861 126.417 20.7C126.417 21.1759 126.274 21.628 125.989 22.0563C125.703 22.4608 125.287 22.663 124.739 22.663C124.359 22.663 124.038 22.6154 123.776 22.5203C123.538 22.4013 123.324 22.2585 123.133 22.092C122.943 21.9254 122.717 21.7707 122.455 21.628C122.217 21.4852 121.848 21.3781 121.349 21.3067C120.873 21.2116 120.516 21.164 120.278 21.164C119.064 21.164 118.029 21.4257 117.173 21.9492C116.34 22.4727 115.698 23.1865 115.245 24.0907C114.793 24.9711 114.567 25.9943 114.567 27.1602C114.567 28.3023 114.793 29.3255 115.245 30.2297C115.721 31.1101 116.364 31.812 117.173 32.3355C118.006 32.859 118.957 33.1208 120.028 33.1208C120.623 33.1208 121.135 33.0851 121.563 33.0137C121.991 32.9423 122.348 32.8352 122.634 32.6924C122.967 32.5021 123.264 32.2998 123.526 32.0857C123.788 31.8715 124.18 31.7645 124.704 31.7645C125.322 31.7645 125.798 31.9667 126.131 32.3712C126.465 32.7519 126.631 33.2278 126.631 33.7989C126.631 34.3938 126.298 34.941 125.632 35.4407C124.966 35.9166 124.085 36.3092 122.991 36.6186C121.92 36.9041 120.754 37.0469 119.493 37.0469C117.613 37.0469 115.983 36.6186 114.603 35.762C113.223 34.8816 112.152 33.6918 111.391 32.1928C110.653 30.6937 110.284 29.0162 110.284 27.1602C110.284 25.209 110.677 23.4958 111.462 22.0206C112.271 20.5215 113.378 19.3556 114.781 18.5228C116.209 17.6662 117.839 17.2379 119.671 17.2379ZM143.889 17.5948C144.508 17.5948 145.02 17.8089 145.424 18.2372C145.829 18.6417 146.031 19.1533 146.031 19.772V28.8377C146.031 31.36 145.329 33.3587 143.925 34.834C142.521 36.3092 140.499 37.0469 137.857 37.0469C135.216 37.0469 133.194 36.3092 131.79 34.834C130.41 33.3587 129.72 31.36 129.72 28.8377V19.772C129.72 19.1533 129.922 18.6417 130.326 18.2372C130.731 17.8089 131.242 17.5948 131.861 17.5948C132.48 17.5948 132.991 17.8089 133.396 18.2372C133.8 18.6417 134.003 19.1533 134.003 19.772V28.8377C134.003 30.2892 134.324 31.3718 134.966 32.0857C135.609 32.7757 136.572 33.1208 137.857 33.1208C139.166 33.1208 140.142 32.7757 140.784 32.0857C141.427 31.3718 141.748 30.2892 141.748 28.8377V19.772C141.748 19.1533 141.95 18.6417 142.355 18.2372C142.759 17.8089 143.271 17.5948 143.889 17.5948ZM155.308 34.5127C155.308 35.1314 155.093 35.6549 154.665 36.0832C154.261 36.4877 153.749 36.6899 153.13 36.6899C152.536 36.6899 152.036 36.4877 151.631 36.0832C151.227 35.6549 151.025 35.1314 151.025 34.5127V12.4551C151.025 11.8365 151.227 11.3249 151.631 10.9204C152.06 10.4921 152.583 10.2779 153.202 10.2779C153.82 10.2779 154.32 10.4921 154.701 10.9204C155.105 11.3249 155.308 11.8365 155.308 12.4551V34.5127ZM174.283 17.5948C174.902 17.5948 175.413 17.8089 175.818 18.2372C176.222 18.6417 176.425 19.1533 176.425 19.772V28.8377C176.425 31.36 175.723 33.3587 174.319 34.834C172.915 36.3092 170.892 37.0469 168.251 37.0469C165.61 37.0469 163.587 36.3092 162.184 34.834C160.804 33.3587 160.113 31.36 160.113 28.8377V19.772C160.113 19.1533 160.316 18.6417 160.72 18.2372C161.125 17.8089 161.636 17.5948 162.255 17.5948C162.874 17.5948 163.385 17.8089 163.79 18.2372C164.194 18.6417 164.396 19.1533 164.396 19.772V28.8377C164.396 30.2892 164.718 31.3718 165.36 32.0857C166.003 32.7757 166.966 33.1208 168.251 33.1208C169.56 33.1208 170.536 32.7757 171.178 32.0857C171.82 31.3718 172.142 30.2892 172.142 28.8377V19.772C172.142 19.1533 172.344 18.6417 172.748 18.2372C173.153 17.8089 173.664 17.5948 174.283 17.5948ZM179.955 33.7275C179.717 33.3944 179.61 32.9661 179.634 32.4426C179.658 31.9191 179.967 31.467 180.562 31.0863C180.943 30.8484 181.347 30.7532 181.775 30.8008C182.204 30.8246 182.62 31.0387 183.025 31.4432C183.715 32.1333 184.44 32.6687 185.202 33.0494C185.963 33.4301 186.915 33.6204 188.057 33.6204C188.414 33.5966 188.807 33.5491 189.235 33.4777C189.663 33.3825 190.032 33.1921 190.341 32.9066C190.675 32.5973 190.841 32.1333 190.841 31.5146C190.841 30.9911 190.663 30.5747 190.306 30.2654C189.949 29.9561 189.473 29.6943 188.878 29.4802C188.307 29.266 187.665 29.0638 186.951 28.8734C186.213 28.6593 185.452 28.4213 184.666 28.1596C183.905 27.8978 183.203 27.5647 182.561 27.1602C181.918 26.7319 181.395 26.1727 180.99 25.4827C180.586 24.7926 180.383 23.9241 180.383 22.8772C180.383 21.6874 180.717 20.6762 181.383 19.8434C182.049 19.0106 182.906 18.3681 183.953 17.916C185.023 17.4639 186.142 17.2379 187.308 17.2379C188.045 17.2379 188.819 17.333 189.628 17.5234C190.437 17.69 191.21 17.9755 191.948 18.38C192.685 18.7607 193.304 19.2723 193.804 19.9147C194.065 20.2717 194.22 20.7 194.268 21.1997C194.315 21.6993 194.089 22.1514 193.589 22.556C193.232 22.8415 192.816 22.9724 192.34 22.9486C191.864 22.901 191.472 22.7344 191.162 22.4489C190.758 21.9254 190.211 21.509 189.521 21.1997C188.854 20.8903 188.081 20.7357 187.201 20.7357C186.844 20.7357 186.451 20.7833 186.023 20.8784C185.618 20.9498 185.261 21.1283 184.952 21.4138C184.643 21.6756 184.488 22.1039 184.488 22.6987C184.488 23.246 184.666 23.6862 185.023 24.0193C185.38 24.3286 185.856 24.5904 186.451 24.8045C187.07 24.9949 187.724 25.1853 188.414 25.3756C189.128 25.566 189.854 25.792 190.591 26.0538C191.329 26.3155 192.007 26.6605 192.626 27.0888C193.244 27.5171 193.744 28.0763 194.125 28.7663C194.505 29.4326 194.696 30.2892 194.696 31.3362C194.696 32.5497 194.339 33.5847 193.625 34.4414C192.911 35.298 192.019 35.9523 190.948 36.4044C189.877 36.8327 188.783 37.0469 187.665 37.0469C186.261 37.0469 184.857 36.8089 183.453 36.333C182.049 35.8333 180.883 34.9648 179.955 33.7275Z" fill="black"/>
</svg>
