<svg width="25" height="24" viewBox="0 0 25 24" fill="none" xmlns="http://www.w3.org/2000/svg">
<path d="M11.6432 1.42372C12.0319 0.777902 12.9681 0.777901 13.3568 1.42372L16.7252 7.02084C16.8648 7.25285 17.0926 7.41832 17.3564 7.47942L23.7205 8.95335C24.4548 9.12342 24.7441 10.0139 24.25 10.5831L19.9677 15.5162C19.7902 15.7207 19.7032 15.9885 19.7266 16.2582L20.2914 22.7663C20.3566 23.5172 19.5991 24.0676 18.9051 23.7735L12.8901 21.2253C12.6408 21.1196 12.3592 21.1196 12.1099 21.2253L6.09491 23.7735C5.40088 24.0676 4.6434 23.5172 4.70857 22.7663L5.27338 16.2582C5.2968 15.9885 5.2098 15.7207 5.03229 15.5162L0.750009 10.5831C0.2559 10.0139 0.545231 9.12342 1.27954 8.95335L7.64361 7.47942C7.90742 7.41832 8.13517 7.25285 8.27479 7.02084L11.6432 1.42372Z" fill="#C6EB5D"/>
</svg>
