<svg width="192" height="40" viewBox="0 0 192 40" fill="none" xmlns="http://www.w3.org/2000/svg">
<path d="M4.46896 20.7759C4.46896 17.8153 4.4784 16.6574 4.63949 15.7344C5.46976 10.9772 9.19494 7.25198 13.9521 6.42172C14.8752 6.26063 16.0331 6.25119 18.9936 6.25119H47.4843C50.4449 6.25119 51.6028 6.26063 52.5258 6.42172C57.283 7.25198 61.0082 10.9772 61.8385 15.7344C61.9996 16.6574 62.009 17.8153 62.009 20.7759V27.768C62.009 31.9281 58.6366 35.3005 54.4765 35.3005C53.0362 35.3005 51.6261 34.8876 50.4133 34.1106L47.2526 32.0858C47.1048 31.9912 46.9589 31.8976 46.8148 31.8053C42.6325 29.1245 39.9647 27.4145 37.0188 26.7898C34.8027 26.3198 32.5135 26.3118 30.2942 26.7662C27.344 27.3702 24.6642 29.0615 20.4632 31.7128C20.3185 31.8041 20.1719 31.8966 20.0235 31.9903L16.7302 34.0676C15.4532 34.8731 13.9743 35.3005 12.4645 35.3005C8.04869 35.3005 4.46896 31.7208 4.46896 27.305V20.7759Z" stroke="black" stroke-width="5.02777"/>
<circle cx="15.9212" cy="14.3513" r="3.07253" fill="black"/>
<circle cx="11.8712" cy="18.4015" r="1.81558" fill="black"/>
<rect y="17.1445" width="3.63117" height="9.77622" rx="1.3966" fill="black"/>
<rect x="62.5674" y="17.1445" width="3.63117" height="9.77622" rx="1.3966" fill="black"/>
<path d="M88.5224 14.7714H79.151C76.9628 14.7714 75.6625 15.8338 75.2502 17.9586C74.838 20.0835 76.0114 22.4144 78.7704 24.9515C80.4433 26.2676 80.1579 26.8939 77.9142 26.8305H74.2988V31.9443H83.4323C85.906 31.5321 87.1666 30.2635 87.2142 28.1387C87.2618 26.0139 86.0011 23.8257 83.4323 21.574C81.9973 20.3847 82.2986 19.8218 84.3362 19.8852H88.5224V14.7714ZM94.1119 14.7714V20.361L98.0364 14.7714H103.626L97.2277 23.3579L100.082 26.8305H105.22V31.9443H98.4408L94.1119 26.8305V31.9443H88.5224V14.7714H94.1119ZM119.959 23.453C119.959 25.3321 119.566 26.9336 118.781 28.2576C117.996 29.5817 116.859 30.5767 115.368 31.2427C113.886 31.9087 112.114 32.2417 110.052 32.2417C107.991 32.2417 106.219 31.9087 104.736 31.2427C103.262 30.5688 102.144 29.5777 101.383 28.2695C100.621 26.9534 100.241 25.3479 100.241 23.453C100.241 22.018 100.459 20.7574 100.895 19.6712C101.331 18.5771 101.969 17.6574 102.81 16.9121C103.65 16.1668 104.681 15.6039 105.902 15.2234C107.123 14.8349 108.506 14.6406 110.052 14.6406C112.106 14.6406 113.878 14.9815 115.368 15.6634C116.859 16.3373 117.996 17.3363 118.781 18.6603C119.566 19.9764 119.959 21.574 119.959 23.453ZM106.342 23.5006C106.342 24.6026 106.588 25.562 107.079 26.3786C107.579 27.1952 108.558 27.6035 110.017 27.6035C111.142 27.6035 111.983 27.3895 112.538 26.9613C113.101 26.5332 113.45 26.0456 113.584 25.4986C113.727 24.9436 113.822 24.2776 113.87 23.5006C113.822 22.3985 113.557 21.4392 113.073 20.6226C112.589 19.798 111.571 19.3858 110.017 19.3858C107.567 19.3858 106.342 20.7574 106.342 23.5006ZM135.53 23.453C135.53 25.3321 135.138 26.9336 134.353 28.2576C133.568 29.5817 132.43 30.5767 130.94 31.2427C129.457 31.9087 127.685 32.2417 125.624 32.2417C123.563 32.2417 121.791 31.9087 120.308 31.2427C118.833 30.5688 117.715 29.5777 116.954 28.2695C116.193 26.9534 115.813 25.3479 115.813 23.453C115.813 22.018 116.031 20.7574 116.467 19.6712C116.903 18.5771 117.541 17.6574 118.381 16.9121C119.222 16.1668 120.252 15.6039 121.473 15.2234C122.694 14.8349 124.078 14.6406 125.624 14.6406C127.677 14.6406 129.449 14.9815 130.94 15.6634C132.43 16.3373 133.568 17.3363 134.353 18.6603C135.138 19.9764 135.53 21.574 135.53 23.453ZM121.913 23.5006C121.913 24.6026 122.159 25.562 122.651 26.3786C123.15 27.1952 124.129 27.6035 125.588 27.6035C126.714 27.6035 127.554 27.3895 128.109 26.9613C128.672 26.5332 129.021 26.0456 129.156 25.4986C129.299 24.9436 129.394 24.2776 129.441 23.5006C129.394 22.3985 129.128 21.4392 128.645 20.6226C128.161 19.798 127.142 19.3858 125.588 19.3858C123.138 19.3858 121.913 20.7574 121.913 23.5006ZM136.363 31.9443V14.7714H141.952V26.8305H151.252V31.9443H136.363ZM153.074 14.7714L159.116 31.9443H168.237L174.362 14.7714H167.476L163.528 27.9603L159.627 14.7714H153.074ZM174.124 27.5203V14.7714H185.303C186.683 14.8983 187.789 15.2392 188.621 15.7942C189.454 16.3492 190.021 16.8844 190.322 17.3997C190.623 17.915 190.837 18.5453 190.964 19.2906C191.091 20.0359 191.008 20.8485 190.714 21.7286C190.421 22.6087 189.918 23.3262 189.204 23.8812C188.491 24.4361 187.468 24.8722 186.136 25.1893L190.56 32.42C190.845 32.8323 191.273 32.9988 191.844 32.9195V38.0333C189.577 38.0968 188.094 37.6528 187.396 36.7014L180.332 26.2716V31.9443H174.124V27.5203ZM180.332 19.0528V22.2162H184.661C184.891 22.2162 185.141 22.1329 185.41 21.9665C185.68 21.792 185.823 21.3599 185.838 20.6702C185.799 20.0121 185.636 19.58 185.351 19.3739C185.073 19.1598 184.84 19.0528 184.649 19.0528H180.332Z" fill="black"/>
</svg>
