<svg width="24" height="31" viewBox="0 0 24 31" fill="none" xmlns="http://www.w3.org/2000/svg">
<path d="M23.416 20.2404C23.416 22.267 22.936 24.0484 21.976 25.5844C21.016 27.1204 19.6613 28.3257 17.912 29.2004C16.1627 30.0537 14.1147 30.4804 11.768 30.4804C9.42133 30.4804 7.384 30.0537 5.656 29.2004C3.90667 28.3257 2.552 27.1204 1.592 25.5844C0.610666 24.0484 0.119999 22.267 0.119999 20.2404C0.119999 18.4697 0.503999 16.891 1.272 15.5044C2.01867 14.0964 3.08533 12.9337 4.472 12.0164L5.496 13.7444C4.408 14.4697 3.56533 15.387 2.968 16.4964C2.37067 17.6057 2.072 18.8537 2.072 20.2404C2.072 21.8404 2.46667 23.259 3.256 24.4964C4.024 25.7337 5.13333 26.7044 6.584 27.4084C8.03467 28.1124 9.76267 28.4644 11.768 28.4644C13.7733 28.4644 15.512 28.1124 16.984 27.4084C18.4347 26.7044 19.5547 25.7337 20.344 24.4964C21.112 23.259 21.496 21.8404 21.496 20.2404C21.496 18.8537 21.1973 17.6057 20.6 16.4964C20.0027 15.387 19.16 14.4697 18.072 13.7444L19.128 12.0164C20.472 12.9337 21.528 14.0964 22.296 15.5044C23.0427 16.891 23.416 18.4697 23.416 20.2404ZM23.352 7.50762C23.352 9.02229 22.9147 10.313 22.04 11.3796C21.1653 12.4463 20.0027 13.1823 18.552 13.5876L17.944 11.8276C18.8827 11.5716 19.7253 11.0916 20.472 10.3876C21.1973 9.66229 21.56 8.71296 21.56 7.53962C21.56 6.02496 21.1653 4.85162 20.376 4.01962C19.5867 3.18762 18.424 2.77162 16.888 2.77162C15.4373 2.77162 14.2747 3.25162 13.4 4.21162C12.5253 5.15029 12.088 6.35562 12.088 7.82762V8.78762H10.296V7.82762C10.296 6.41962 9.90133 5.32096 9.112 4.53162C8.32267 3.74229 7.288 3.34762 6.008 3.34762C5.06933 3.34762 4.312 3.55029 3.736 3.95562C3.16 4.33962 2.744 4.85162 2.488 5.49162C2.21067 6.13162 2.072 6.81429 2.072 7.53962C2.072 8.24362 2.24267 8.86229 2.584 9.39562C2.92533 9.92896 3.36267 10.377 3.896 10.7396C4.42933 11.1023 4.99467 11.3903 5.592 11.6036L4.888 13.3316C3.37333 12.7983 2.22133 12.009 1.432 10.9636C0.621333 9.89696 0.216 8.74496 0.216 7.50762C0.216 5.71562 0.727999 4.25429 1.752 3.12362C2.776 1.99296 4.184 1.42762 5.976 1.42762C7.17067 1.42762 8.22667 1.73696 9.144 2.35562C10.0613 2.97429 10.7333 3.80629 11.16 4.85162C11.5653 3.67829 12.28 2.71829 13.304 1.97162C14.328 1.22496 15.5333 0.851624 16.92 0.851624C18.136 0.851624 19.2347 1.09696 20.216 1.58762C21.176 2.05696 21.944 2.78229 22.52 3.76362C23.0747 4.74496 23.352 5.99296 23.352 7.50762Z" fill="url(#paint0_linear_128_205)"/>
<defs>
<linearGradient id="paint0_linear_128_205" x1="-4" y1="15.5" x2="22" y2="15.5" gradientUnits="userSpaceOnUse">
<stop stop-color="#13B0F5"/>
<stop offset="1" stop-color="#E70FAA"/>
</linearGradient>
</defs>
</svg>
