<svg width="210" height="27" viewBox="0 0 210 27" fill="none" xmlns="http://www.w3.org/2000/svg">
<path d="M10.3003 26.56C8.42031 26.56 7.02031 26.28 6.10031 25.72C5.20031 25.16 4.75031 24.11 4.75031 22.57C4.75031 21.83 4.77031 21.15 4.81031 20.53C4.85031 19.91 4.89031 19.3 4.93031 18.7C4.99031 18.08 5.02031 17.44 5.02031 16.78C5.02031 16.38 4.90031 16.01 4.66031 15.67C4.44031 15.31 4.01031 15.02 3.37031 14.8C2.75031 14.56 1.85031 14.44 0.670313 14.44V12.88C1.85031 12.88 2.75031 12.77 3.37031 12.55C4.01031 12.31 4.44031 12.01 4.66031 11.65C4.90031 11.29 5.02031 10.92 5.02031 10.54C5.02031 9.92 4.99031 9.3 4.93031 8.68C4.89031 8.04 4.85031 7.4 4.81031 6.76C4.77031 6.12 4.75031 5.45 4.75031 4.75C4.75031 3.21 5.20031 2.16 6.10031 1.6C7.02031 1.04 8.42031 0.76 10.3003 0.76H12.1303V2.17H10.5703C9.55031 2.17 8.77031 2.27 8.23031 2.47C7.71031 2.65 7.35031 2.94 7.15031 3.34C6.95031 3.72 6.85031 4.24 6.85031 4.9C6.85031 5.76 6.88031 6.65 6.94031 7.57C7.00031 8.47 7.03031 9.39 7.03031 10.33C7.03031 11.29 6.83031 12.03 6.43031 12.55C6.05031 13.07 5.34031 13.42 4.30031 13.6V13.72C5.34031 13.9 6.05031 14.25 6.43031 14.77C6.83031 15.29 7.03031 16.03 7.03031 16.99C7.03031 17.99 7.00031 18.92 6.94031 19.78C6.88031 20.62 6.85031 21.5 6.85031 22.42C6.85031 23.06 6.95031 23.58 7.15031 23.98C7.35031 24.38 7.71031 24.67 8.23031 24.85C8.77031 25.05 9.55031 25.15 10.5703 25.15H12.1303V26.56H10.3003ZM24.0886 22.36C23.1286 22.36 22.2386 22.22 21.4186 21.94C20.6186 21.64 19.9186 21.19 19.3186 20.59C18.7186 19.97 18.2486 19.16 17.9086 18.16C17.5886 17.16 17.4286 15.96 17.4286 14.56V2.32H19.9486V14.62C19.9486 15.98 20.1286 17.07 20.4886 17.89C20.8486 18.69 21.3386 19.27 21.9586 19.63C22.5986 19.99 23.3086 20.17 24.0886 20.17C24.8886 20.17 25.5986 19.99 26.2186 19.63C26.8586 19.27 27.3586 18.69 27.7186 17.89C28.0786 17.07 28.2586 15.98 28.2586 14.62V2.32H30.6886V14.56C30.6886 15.96 30.5186 17.16 30.1786 18.16C29.8586 19.16 29.3986 19.97 28.7986 20.59C28.2186 21.19 27.5286 21.64 26.7286 21.94C25.9286 22.22 25.0486 22.36 24.0886 22.36ZM40.7869 22V4.42H34.3069V2.32H49.7869V4.42H43.3069V22H40.7869ZM53.9752 22V2.32H56.4952V12.19H56.5852L64.8652 2.32H67.7152L56.4952 15.73V22H53.9752ZM65.6152 22L59.5252 11.02L61.0552 9.04L68.4352 22H65.6152ZM78.0534 22.36C77.0934 22.36 76.2034 22.22 75.3834 21.94C74.5834 21.64 73.8834 21.19 73.2834 20.59C72.6834 19.97 72.2134 19.16 71.8734 18.16C71.5534 17.16 71.3934 15.96 71.3934 14.56V2.32H73.9134V14.62C73.9134 15.98 74.0934 17.07 74.4534 17.89C74.8134 18.69 75.3034 19.27 75.9234 19.63C76.5634 19.99 77.2734 20.17 78.0534 20.17C78.8534 20.17 79.5634 19.99 80.1834 19.63C80.8234 19.27 81.3234 18.69 81.6834 17.89C82.0434 17.07 82.2234 15.98 82.2234 14.62V2.32H84.6534V14.56C84.6534 15.96 84.4834 17.16 84.1434 18.16C83.8234 19.16 83.3634 19.97 82.7634 20.59C82.1834 21.19 81.4934 21.64 80.6934 21.94C79.8934 22.22 79.0134 22.36 78.0534 22.36ZM97.5417 22.36C96.3217 22.36 95.1917 22.13 94.1517 21.67C93.1117 21.21 92.2017 20.55 91.4217 19.69C90.6417 18.81 90.0317 17.74 89.5917 16.48C89.1717 15.2 88.9617 13.76 88.9617 12.16C88.9617 10.06 89.3417 8.25 90.1017 6.73C90.8617 5.19 91.9017 4.01 93.2217 3.19C94.5417 2.37 96.0617 1.96 97.7817 1.96C98.9617 1.96 100.012 2.21 100.932 2.71C101.852 3.19 102.592 3.74 103.152 4.36L101.742 5.95C101.242 5.39 100.662 4.95 100.002 4.63C99.3417 4.31 98.6017 4.15 97.7817 4.15C96.5217 4.15 95.4217 4.48 94.4817 5.14C93.5617 5.78 92.8417 6.69 92.3217 7.87C91.8017 9.05 91.5417 10.46 91.5417 12.1C91.5417 13.76 91.8017 15.19 92.3217 16.39C92.8417 17.59 93.5617 18.52 94.4817 19.18C95.4217 19.84 96.5217 20.17 97.7817 20.17C98.6817 20.17 99.4917 19.98 100.212 19.6C100.932 19.22 101.602 18.68 102.222 17.98L103.632 19.51C102.872 20.41 101.992 21.11 100.992 21.61C99.9917 22.11 98.8417 22.36 97.5417 22.36ZM113.61 22.36C112.51 22.36 111.53 22.23 110.67 21.97C109.81 21.71 109.05 21.38 108.39 20.98C107.75 20.58 107.19 20.14 106.71 19.66L107.97 18.04C108.61 18.64 109.38 19.17 110.28 19.63C111.18 20.09 112.24 20.32 113.46 20.32C114.34 20.32 115.12 20.18 115.8 19.9C116.5 19.6 117.05 19.19 117.45 18.67C117.85 18.13 118.05 17.51 118.05 16.81C118.05 16.05 117.82 15.39 117.36 14.83C116.9 14.25 116.16 13.8 115.14 13.48C114.12 13.16 112.77 13 111.09 13V11.11C112.61 11.11 113.83 10.95 114.75 10.63C115.67 10.31 116.33 9.89 116.73 9.37C117.15 8.83 117.36 8.22 117.36 7.54C117.36 6.6 117 5.86 116.28 5.32C115.58 4.78 114.64 4.51 113.46 4.51C112.56 4.51 111.7 4.69 110.88 5.05C110.08 5.41 109.37 5.88 108.75 6.46L107.43 4.9C108.23 4.2 109.14 3.63 110.16 3.19C111.2 2.73 112.33 2.5 113.55 2.5C114.75 2.5 115.82 2.69 116.76 3.07C117.72 3.45 118.48 4 119.04 4.72C119.6 5.44 119.88 6.32 119.88 7.36C119.88 8.52 119.49 9.47 118.71 10.21C117.95 10.95 116.98 11.52 115.8 11.92V12.04C116.64 12.22 117.42 12.53 118.14 12.97C118.88 13.39 119.46 13.93 119.88 14.59C120.32 15.25 120.54 16.02 120.54 16.9C120.54 18.04 120.22 19.02 119.58 19.84C118.96 20.64 118.13 21.26 117.09 21.7C116.05 22.14 114.89 22.36 113.61 22.36ZM125.448 22V2.32H128.208L134.508 14.68L136.398 18.76H136.458C136.418 17.78 136.348 16.76 136.248 15.7C136.168 14.62 136.128 13.56 136.128 12.52V2.32H138.528V22H135.768L129.468 9.64L127.578 5.56H127.518C127.558 6.56 127.618 7.58 127.698 8.62C127.798 9.66 127.848 10.69 127.848 11.71V22H125.448ZM151.087 22.36C149.447 22.36 147.987 21.96 146.707 21.16C145.427 20.34 144.417 19.17 143.677 17.65C142.937 16.13 142.567 14.3 142.567 12.16C142.567 10.04 142.937 8.22 143.677 6.7C144.437 5.16 145.467 3.99 146.767 3.19C148.087 2.37 149.597 1.96 151.297 1.96C152.597 1.96 153.687 2.22 154.567 2.74C155.447 3.24 156.167 3.78 156.727 4.36L155.317 5.95C154.837 5.43 154.277 5 153.637 4.66C153.017 4.32 152.237 4.15 151.297 4.15C150.077 4.15 149.007 4.48 148.087 5.14C147.167 5.78 146.447 6.69 145.927 7.87C145.427 9.05 145.177 10.46 145.177 12.1C145.177 13.76 145.417 15.19 145.897 16.39C146.377 17.59 147.067 18.52 147.967 19.18C148.867 19.84 149.957 20.17 151.237 20.17C151.917 20.17 152.567 20.07 153.187 19.87C153.807 19.65 154.297 19.36 154.657 19V13.87H150.727V11.8H156.967V20.08C156.347 20.72 155.527 21.26 154.507 21.7C153.507 22.14 152.367 22.36 151.087 22.36ZM161.815 22V19.87H166.705V4.42H161.815V2.32H174.115V4.42H169.225V19.87H174.115V22H161.815ZM178.903 22V20.5L189.883 4.39H179.863V2.29H192.973V3.79L181.963 19.87H193.123V22H178.903ZM197.911 26.56V25.15H199.441C200.481 25.15 201.261 25.05 201.781 24.85C202.321 24.67 202.691 24.38 202.891 23.98C203.091 23.58 203.191 23.06 203.191 22.42C203.191 21.5 203.161 20.62 203.101 19.78C203.041 18.92 203.011 17.99 203.011 16.99C203.011 16.03 203.201 15.29 203.581 14.77C203.961 14.25 204.671 13.9 205.711 13.72V13.6C204.671 13.42 203.961 13.07 203.581 12.55C203.201 12.03 203.011 11.29 203.011 10.33C203.011 9.39 203.041 8.47 203.101 7.57C203.161 6.65 203.191 5.76 203.191 4.9C203.191 4.24 203.091 3.72 202.891 3.34C202.691 2.94 202.321 2.65 201.781 2.47C201.261 2.27 200.481 2.17 199.441 2.17H197.911V0.76H199.741C201.621 0.76 203.011 1.04 203.911 1.6C204.811 2.16 205.261 3.21 205.261 4.75C205.261 5.45 205.241 6.12 205.201 6.76C205.161 7.4 205.111 8.04 205.051 8.68C205.011 9.3 204.991 9.92 204.991 10.54C204.991 10.92 205.101 11.29 205.321 11.65C205.561 12.01 205.991 12.31 206.611 12.55C207.251 12.77 208.161 12.88 209.341 12.88V14.44C208.161 14.44 207.251 14.56 206.611 14.8C205.991 15.02 205.561 15.31 205.321 15.67C205.101 16.01 204.991 16.38 204.991 16.78C204.991 17.44 205.011 18.08 205.051 18.7C205.111 19.3 205.161 19.91 205.201 20.53C205.241 21.15 205.261 21.83 205.261 22.57C205.261 24.11 204.811 25.16 203.911 25.72C203.011 26.28 201.621 26.56 199.741 26.56H197.911Z" fill="url(#paint0_linear_119_198)"/>
<defs>
<linearGradient id="paint0_linear_119_198" x1="-19.4571" y1="21.7692" x2="244.232" y2="-32.2675" gradientUnits="userSpaceOnUse">
<stop stop-color="#00C0FD"/>
<stop offset="1" stop-color="#E70FAA"/>
</linearGradient>
</defs>
</svg>
