<svg width="1368" height="1646" viewBox="0 0 1368 1646" fill="none" xmlns="http://www.w3.org/2000/svg">
<g opacity="0.3">
<path d="M1895.41 992.173C1745.11 931.59 1503.84 846.123 1535.18 1044.43C1575.06 1296.8 1943.54 1454.39 1714.22 1495.62" stroke="url(#paint0_linear_205_573)" stroke-width="8.2894"/>
<path d="M1838.14 992.39C1687.84 931.807 1446.57 846.34 1477.91 1044.65C1517.79 1297.02 1886.27 1454.6 1656.95 1495.84" stroke="url(#paint1_linear_205_573)" stroke-width="8.2894"/>
<path d="M1781.09 987.411C1630.78 926.828 1389.52 841.361 1420.86 1039.67C1460.73 1292.04 1829.22 1449.63 1599.9 1490.86" stroke="url(#paint2_linear_205_573)" stroke-width="8.2894"/>
<path d="M1724.87 976.488C1574.56 915.905 1333.3 830.438 1364.64 1028.75C1404.51 1281.12 1773 1438.7 1543.68 1479.94" stroke="url(#paint3_linear_205_573)" stroke-width="8.2894"/>
<path d="M1670.24 959.284C1519.94 898.7 1278.67 813.233 1310.01 1011.55C1349.89 1263.91 1718.38 1421.5 1489.06 1462.73" stroke="url(#paint4_linear_205_573)" stroke-width="8.2894"/>
<path d="M1617.87 936.115C1467.56 875.532 1226.3 790.065 1257.64 988.376C1297.51 1240.74 1666 1398.33 1436.68 1439.57" stroke="url(#paint5_linear_205_573)" stroke-width="8.2894"/>
<path d="M1568.02 907.915C1417.72 847.332 1176.45 761.865 1207.79 960.177C1247.67 1212.54 1616.15 1370.13 1386.84 1411.37" stroke="url(#paint6_linear_205_573)" stroke-width="8.2894"/>
<path d="M1520.51 875.93C1370.21 815.347 1128.95 729.88 1160.29 928.192C1200.16 1180.56 1568.65 1338.14 1339.33 1379.38" stroke="url(#paint7_linear_205_573)" stroke-width="8.2894"/>
<path d="M1474.84 841.383C1324.54 780.8 1083.27 695.333 1114.61 893.645C1154.49 1146.01 1522.97 1303.6 1293.65 1344.83" stroke="url(#paint8_linear_205_573)" stroke-width="8.2894"/>
<path d="M1430.36 805.305C1280.06 744.722 1038.79 659.255 1070.13 857.567C1110.01 1109.93 1478.49 1267.52 1249.17 1308.76" stroke="url(#paint9_linear_205_573)" stroke-width="8.2894"/>
<path d="M1386.48 768.499C1236.18 707.916 994.917 622.449 1026.25 820.76C1066.13 1073.13 1434.62 1230.71 1205.3 1271.95" stroke="url(#paint10_linear_205_573)" stroke-width="8.2894"/>
<path d="M1342.71 731.57C1192.41 670.986 951.144 585.519 982.48 783.831C1022.36 1036.2 1390.84 1193.78 1161.53 1235.02" stroke="url(#paint11_linear_205_573)" stroke-width="8.2894"/>
<path d="M1298.66 694.973C1148.36 634.389 907.093 548.922 938.43 747.234C978.308 999.6 1346.79 1157.19 1117.47 1198.42" stroke="url(#paint12_linear_205_573)" stroke-width="8.2894"/>
<path d="M1254.06 659.044C1103.76 598.461 862.493 512.994 893.83 711.306C933.708 963.672 1302.19 1121.26 1072.87 1162.5" stroke="url(#paint13_linear_205_573)" stroke-width="8.2894"/>
<path d="M1208.74 624.036C1058.43 563.453 817.17 477.986 848.507 676.297C888.385 928.663 1256.87 1086.25 1027.55 1127.49" stroke="url(#paint14_linear_205_573)" stroke-width="8.2894"/>
<path d="M1162.59 590.125C1012.28 529.542 771.019 444.075 802.355 642.387C842.234 894.752 1210.72 1052.34 981.4 1093.58" stroke="url(#paint15_linear_205_573)" stroke-width="8.2894"/>
<path d="M1115.28 557.212C964.98 496.629 723.716 411.162 755.053 609.474C794.931 861.84 1163.42 1019.43 934.098 1060.66" stroke="url(#paint16_linear_205_573)" stroke-width="8.2894"/>
<path d="M1067.73 525.3C917.426 464.716 676.162 379.249 707.499 577.561C747.377 829.927 1115.86 987.514 886.544 1028.75" stroke="url(#paint17_linear_205_573)" stroke-width="8.2894"/>
<path d="M1019.72 494.077C869.416 433.494 628.151 348.027 659.488 546.338C699.367 798.704 1067.85 956.291 838.533 997.528" stroke="url(#paint18_linear_205_573)" stroke-width="8.2894"/>
<path d="M971.201 463.646C820.899 403.063 579.635 317.596 610.972 515.908C650.85 768.273 1019.34 925.86 790.017 967.097" stroke="url(#paint19_linear_205_573)" stroke-width="8.2894"/>
<path d="M922.119 434.137C771.817 373.554 530.553 288.087 561.89 486.399C601.768 738.764 970.253 896.351 740.935 937.588" stroke="url(#paint20_linear_205_573)" stroke-width="8.2894"/>
<path d="M872.398 405.718C722.095 345.134 480.831 259.667 512.168 457.979C552.046 710.345 920.531 867.932 691.213 909.169" stroke="url(#paint21_linear_205_573)" stroke-width="8.2894"/>
<path d="M821.948 378.612C671.646 318.028 430.382 232.561 461.719 430.873C501.597 683.239 870.082 840.826 640.764 882.063" stroke="url(#paint22_linear_205_573)" stroke-width="8.2894"/>
<path d="M770.659 353.129C620.357 292.545 379.093 207.078 410.43 405.39C450.308 657.756 818.793 815.343 589.475 856.58" stroke="url(#paint23_linear_205_573)" stroke-width="8.2894"/>
<path d="M718.394 329.713C568.091 269.13 326.827 183.663 358.164 381.975C398.042 634.34 766.528 791.927 537.209 833.164" stroke="url(#paint24_linear_205_573)" stroke-width="8.2894"/>
<path d="M664.986 309.027C514.684 248.444 273.42 162.977 304.757 361.289C344.635 613.654 713.12 771.241 483.802 812.478" stroke="url(#paint25_linear_205_573)" stroke-width="8.2894"/>
<path d="M610.3 292.073C459.998 231.489 218.733 146.022 250.07 344.334C289.949 596.7 658.434 754.287 429.115 795.524" stroke="url(#paint26_linear_205_573)" stroke-width="8.2894"/>
<path d="M554.777 279.743C404.475 219.16 163.211 133.693 194.548 332.004C234.426 584.37 602.911 741.957 373.593 783.194" stroke="url(#paint27_linear_205_573)" stroke-width="8.2894"/>
</g>
<defs>
<linearGradient id="paint0_linear_205_573" x1="1820.28" y1="947.823" x2="1553.06" y2="1400.48" gradientUnits="userSpaceOnUse">
<stop stop-color="#D9DFD0" stop-opacity="0"/>
<stop offset="0.666667" stop-color="#D9DFD0"/>
<stop offset="1" stop-color="#D9DFD0" stop-opacity="0"/>
</linearGradient>
<linearGradient id="paint1_linear_205_573" x1="1763.01" y1="948.04" x2="1495.79" y2="1400.7" gradientUnits="userSpaceOnUse">
<stop stop-color="#D9DFD0" stop-opacity="0"/>
<stop offset="0.666667" stop-color="#D9DFD0"/>
<stop offset="1" stop-color="#D9DFD0" stop-opacity="0"/>
</linearGradient>
<linearGradient id="paint2_linear_205_573" x1="1705.96" y1="943.061" x2="1438.74" y2="1395.72" gradientUnits="userSpaceOnUse">
<stop stop-color="#D9DFD0" stop-opacity="0"/>
<stop offset="0.666667" stop-color="#D9DFD0"/>
<stop offset="1" stop-color="#D9DFD0" stop-opacity="0"/>
</linearGradient>
<linearGradient id="paint3_linear_205_573" x1="1649.74" y1="932.138" x2="1382.52" y2="1384.8" gradientUnits="userSpaceOnUse">
<stop stop-color="#D9DFD0" stop-opacity="0"/>
<stop offset="0.666667" stop-color="#D9DFD0"/>
<stop offset="1" stop-color="#D9DFD0" stop-opacity="0"/>
</linearGradient>
<linearGradient id="paint4_linear_205_573" x1="1595.12" y1="914.934" x2="1327.89" y2="1367.59" gradientUnits="userSpaceOnUse">
<stop stop-color="#D9DFD0" stop-opacity="0"/>
<stop offset="0.666667" stop-color="#D9DFD0"/>
<stop offset="1" stop-color="#D9DFD0" stop-opacity="0"/>
</linearGradient>
<linearGradient id="paint5_linear_205_573" x1="1542.74" y1="891.765" x2="1275.52" y2="1344.42" gradientUnits="userSpaceOnUse">
<stop stop-color="#D9DFD0" stop-opacity="0"/>
<stop offset="0.666667" stop-color="#D9DFD0"/>
<stop offset="1" stop-color="#D9DFD0" stop-opacity="0"/>
</linearGradient>
<linearGradient id="paint6_linear_205_573" x1="1492.89" y1="863.566" x2="1225.67" y2="1316.22" gradientUnits="userSpaceOnUse">
<stop stop-color="#D9DFD0" stop-opacity="0"/>
<stop offset="0.666667" stop-color="#D9DFD0"/>
<stop offset="1" stop-color="#D9DFD0" stop-opacity="0"/>
</linearGradient>
<linearGradient id="paint7_linear_205_573" x1="1445.39" y1="831.58" x2="1178.17" y2="1284.24" gradientUnits="userSpaceOnUse">
<stop stop-color="#D9DFD0" stop-opacity="0"/>
<stop offset="0.666667" stop-color="#D9DFD0"/>
<stop offset="1" stop-color="#D9DFD0" stop-opacity="0"/>
</linearGradient>
<linearGradient id="paint8_linear_205_573" x1="1399.71" y1="797.034" x2="1132.49" y2="1249.69" gradientUnits="userSpaceOnUse">
<stop stop-color="#D9DFD0" stop-opacity="0"/>
<stop offset="0.666667" stop-color="#D9DFD0"/>
<stop offset="1" stop-color="#D9DFD0" stop-opacity="0"/>
</linearGradient>
<linearGradient id="paint9_linear_205_573" x1="1355.23" y1="760.955" x2="1088.01" y2="1213.61" gradientUnits="userSpaceOnUse">
<stop stop-color="#D9DFD0" stop-opacity="0"/>
<stop offset="0.666667" stop-color="#D9DFD0"/>
<stop offset="1" stop-color="#D9DFD0" stop-opacity="0"/>
</linearGradient>
<linearGradient id="paint10_linear_205_573" x1="1311.36" y1="724.149" x2="1044.13" y2="1176.81" gradientUnits="userSpaceOnUse">
<stop stop-color="#D9DFD0" stop-opacity="0"/>
<stop offset="0.666667" stop-color="#D9DFD0"/>
<stop offset="1" stop-color="#D9DFD0" stop-opacity="0"/>
</linearGradient>
<linearGradient id="paint11_linear_205_573" x1="1267.58" y1="687.22" x2="1000.36" y2="1139.88" gradientUnits="userSpaceOnUse">
<stop stop-color="#D9DFD0" stop-opacity="0"/>
<stop offset="0.666667" stop-color="#D9DFD0"/>
<stop offset="1" stop-color="#D9DFD0" stop-opacity="0"/>
</linearGradient>
<linearGradient id="paint12_linear_205_573" x1="1223.53" y1="650.623" x2="956.31" y2="1103.28" gradientUnits="userSpaceOnUse">
<stop stop-color="#D9DFD0" stop-opacity="0"/>
<stop offset="0.666667" stop-color="#D9DFD0"/>
<stop offset="1" stop-color="#D9DFD0" stop-opacity="0"/>
</linearGradient>
<linearGradient id="paint13_linear_205_573" x1="1178.93" y1="614.695" x2="911.71" y2="1067.35" gradientUnits="userSpaceOnUse">
<stop stop-color="#D9DFD0" stop-opacity="0"/>
<stop offset="0.666667" stop-color="#D9DFD0"/>
<stop offset="1" stop-color="#D9DFD0" stop-opacity="0"/>
</linearGradient>
<linearGradient id="paint14_linear_205_573" x1="1133.61" y1="579.686" x2="866.387" y2="1032.34" gradientUnits="userSpaceOnUse">
<stop stop-color="#D9DFD0" stop-opacity="0"/>
<stop offset="0.666667" stop-color="#D9DFD0"/>
<stop offset="1" stop-color="#D9DFD0" stop-opacity="0"/>
</linearGradient>
<linearGradient id="paint15_linear_205_573" x1="1087.46" y1="545.775" x2="820.236" y2="998.434" gradientUnits="userSpaceOnUse">
<stop stop-color="#D9DFD0" stop-opacity="0"/>
<stop offset="0.666667" stop-color="#D9DFD0"/>
<stop offset="1" stop-color="#D9DFD0" stop-opacity="0"/>
</linearGradient>
<linearGradient id="paint16_linear_205_573" x1="1040.16" y1="512.863" x2="772.933" y2="965.521" gradientUnits="userSpaceOnUse">
<stop stop-color="#D9DFD0" stop-opacity="0"/>
<stop offset="0.666667" stop-color="#D9DFD0"/>
<stop offset="1" stop-color="#D9DFD0" stop-opacity="0"/>
</linearGradient>
<linearGradient id="paint17_linear_205_573" x1="992.603" y1="480.95" x2="725.379" y2="933.608" gradientUnits="userSpaceOnUse">
<stop stop-color="#D9DFD0" stop-opacity="0"/>
<stop offset="0.666667" stop-color="#D9DFD0"/>
<stop offset="1" stop-color="#D9DFD0" stop-opacity="0"/>
</linearGradient>
<linearGradient id="paint18_linear_205_573" x1="944.592" y1="449.727" x2="677.369" y2="902.386" gradientUnits="userSpaceOnUse">
<stop stop-color="#D9DFD0" stop-opacity="0"/>
<stop offset="0.666667" stop-color="#D9DFD0"/>
<stop offset="1" stop-color="#D9DFD0" stop-opacity="0"/>
</linearGradient>
<linearGradient id="paint19_linear_205_573" x1="896.075" y1="419.296" x2="628.852" y2="871.955" gradientUnits="userSpaceOnUse">
<stop stop-color="#D9DFD0" stop-opacity="0"/>
<stop offset="0.666667" stop-color="#D9DFD0"/>
<stop offset="1" stop-color="#D9DFD0" stop-opacity="0"/>
</linearGradient>
<linearGradient id="paint20_linear_205_573" x1="846.993" y1="389.787" x2="579.77" y2="842.446" gradientUnits="userSpaceOnUse">
<stop stop-color="#D9DFD0" stop-opacity="0"/>
<stop offset="0.666667" stop-color="#D9DFD0"/>
<stop offset="1" stop-color="#D9DFD0" stop-opacity="0"/>
</linearGradient>
<linearGradient id="paint21_linear_205_573" x1="797.272" y1="361.368" x2="530.048" y2="814.026" gradientUnits="userSpaceOnUse">
<stop stop-color="#D9DFD0" stop-opacity="0"/>
<stop offset="0.666667" stop-color="#D9DFD0"/>
<stop offset="1" stop-color="#D9DFD0" stop-opacity="0"/>
</linearGradient>
<linearGradient id="paint22_linear_205_573" x1="746.823" y1="334.262" x2="479.599" y2="786.921" gradientUnits="userSpaceOnUse">
<stop stop-color="#D9DFD0" stop-opacity="0"/>
<stop offset="0.666667" stop-color="#D9DFD0"/>
<stop offset="1" stop-color="#D9DFD0" stop-opacity="0"/>
</linearGradient>
<linearGradient id="paint23_linear_205_573" x1="695.533" y1="308.779" x2="428.31" y2="761.438" gradientUnits="userSpaceOnUse">
<stop stop-color="#D9DFD0" stop-opacity="0"/>
<stop offset="0.666667" stop-color="#D9DFD0"/>
<stop offset="1" stop-color="#D9DFD0" stop-opacity="0"/>
</linearGradient>
<linearGradient id="paint24_linear_205_573" x1="643.268" y1="285.363" x2="376.044" y2="738.022" gradientUnits="userSpaceOnUse">
<stop stop-color="#D9DFD0" stop-opacity="0"/>
<stop offset="0.666667" stop-color="#D9DFD0"/>
<stop offset="1" stop-color="#D9DFD0" stop-opacity="0"/>
</linearGradient>
<linearGradient id="paint25_linear_205_573" x1="589.861" y1="264.677" x2="322.637" y2="717.336" gradientUnits="userSpaceOnUse">
<stop stop-color="#D9DFD0" stop-opacity="0"/>
<stop offset="0.666667" stop-color="#D9DFD0"/>
<stop offset="1" stop-color="#D9DFD0" stop-opacity="0"/>
</linearGradient>
<linearGradient id="paint26_linear_205_573" x1="535.174" y1="247.723" x2="267.951" y2="700.381" gradientUnits="userSpaceOnUse">
<stop stop-color="#D9DFD0" stop-opacity="0"/>
<stop offset="0.666667" stop-color="#D9DFD0"/>
<stop offset="1" stop-color="#D9DFD0" stop-opacity="0"/>
</linearGradient>
<linearGradient id="paint27_linear_205_573" x1="479.652" y1="235.393" x2="212.428" y2="688.052" gradientUnits="userSpaceOnUse">
<stop stop-color="#D9DFD0" stop-opacity="0"/>
<stop offset="0.666667" stop-color="#D9DFD0"/>
<stop offset="1" stop-color="#D9DFD0" stop-opacity="0"/>
</linearGradient>
</defs>
</svg>
